<?xml version="1.0" encoding="UTF-8"?>
<!DOCTYPE svg PUBLIC "-//W3C//DTD SVG 1.1//EN" "http://www.w3.org/Graphics/SVG/1.1/DTD/svg11.dtd">
<!-- Creator: CorelDRAW 2021 (64 Bit) -->
<svg xmlns="http://www.w3.org/2000/svg" xml:space="preserve" width="170px" height="40px" version="1.1" style="shape-rendering:geometricPrecision; text-rendering:geometricPrecision; image-rendering:optimizeQuality; fill-rule:evenodd; clip-rule:evenodd"
viewBox="0 0 1.31 0.31"
 xmlns:xlink="http://www.w3.org/1999/xlink"
 xmlns:xodm="http://www.corel.com/coreldraw/odm/2003">
 <defs>
  <style type="text/css">
   <![CDATA[
    .fil1 {fill:#FEFEFE}
    .fil0 {fill:#373435}
   ]]>
  </style>
 </defs>
 <g id="Camada_x0020_1">
  <metadata id="CorelCorpID_0Corel-Layer"/>
  <g id="_3055687516432">
   <g>
    <path class="fil0" d="M0.15 0.23c0,0 0,0 0,0.01 0,0 0,0 0,0 0,0 0,0 0,0 0,0.01 0,0.01 0,0.01 0,0 0,0 -0.01,0 0,0 0,0 0,0 0,0 0,0 0,0 0,0 0,0 0,0 0,-0.01 0,0 0,-0.01 0,0 0,-0.01 0,-0.01 0,0 0,0 0,0 0,0 0,0 0,0 0,0 0.01,0 0.01,0l0 0zm0.04 0c0,0 0,0.01 0,0.01 0,0 0,0 0,0 0,0 0,0 0,0 0,0 0,0 0,0 0,0 0,0 -0.01,0 -0.01,0 0,0 0,0 -0.01,0.01 -0.02,0 -0.02,0.01 0,0 0,0 0,0 0,0 0,0 0,0 0,-0.01 0,-0.01 -0.01,-0.01 0,0 0,-0.01 0,-0.01 0,0 0,0 0,0 0,-0.01 0,-0.01 0,-0.01 0,0 0,0 -0.01,0 0,0 0,0 0,0 0,0.01 0,0 -0.01,0.01 0,0 0,0 0,0 0,0 0,0 0,0 0,0 0,0 0,0 0,0 0,0 0,0.01 0,0 0,0 0,0 0,0 0,0 0.01,0.01 0,0 0,0 0,0 0,0 0,0 -0.01,0 0,0 0,0 0,0 0,0 0,0 -0.01,0 0,0 0,0 0,0.01 -0.01,0 -0.01,0 -0.01,0 0,0 0,-0.01 0,-0.01 -0.01,0 -0.01,0 -0.01,0 0,0 0,0 0,0 0,0 0,0 0,0 -0.01,0 -0.01,0 -0.01,0 0,0 0,0 0,0 0,-0.01 0,-0.01 0,-0.01 0,0 0,0 0,0 0,0 0,0 0,0 0,0 0,0 0,-0.01 -0.01,0 -0.01,0 -0.01,0 0,0 0.01,0 0,0 -0.01,0 -0.01,0 -0.01,0 0,0 -0.01,0 -0.01,0 0,0 0,0 -0.01,0 0,0 0,0 0,0 0,0 0,0 0,0 0,0 0,0 -0.01,0l0 0c0,0 0,0 0,0 0,0 0,-0.01 0,-0.01 0,0 0,0 0,0.01 0,0 0,0 0,0l0 0c0,0 0,0 0,0 0,0 -0.01,0 -0.01,0 0,0 0,0 0,0 0,0 0,0 0,0.01 -0.01,0 -0.01,0 -0.01,0l-0.01 0c0,0 0.01,0 0.01,0 0,0 0,0.01 0,0.01l0 0c0,0 0,0 0,0 0,0 0,0 0,0 0,0 0,0 0,0 0,0 0,0 0,0 0,0.01 0,0 0.01,0.01 0,0 0,0 0,0 0,0 0,0 0,0 0,0 0.01,0 0.01,0 0,0 0,0 0,0 0,0 0,0.01 0,0.01 0,0 0,0 0.01,0 0,0 0,0 0,0 0,0 0,0 0,0 0,0 0,0 0,0 0,0 0,0 0,0 0,0 0,0 0,0l0 0c0,0 0,0 0,0 0,0.01 0,0.01 0,0.01 0.01,0 0.01,0 0.01,0 0,0 0,0 0,0 0,0 0,0 0,0 0,0.01 0,0.01 0,0.01 0,0 0,0 0,0 0,0 0,0 0.01,0 0,0 -0.01,0 0,0 0,0 0,0 0,0 0,0 0,0 0,0 0,0 0,0.01 0,0.01 0,0 0,0 0.01,0 0,0 0,0 0,0 0,0 0,0 0,0 0.01,0 0.01,0 0.01,0 0,0 0,0 0,0 0,0 0.01,0 0.01,0 0,0 0,0 0,0 0.01,0 0.01,0 0.02,0 0,0 0,0 0.01,0 0,0 0,0 0,0 0.01,0 0.01,0 0.01,0 0,0 0.01,0 0.02,0 0,0 0,0 0,0l0 0c0,0 0.01,0 0.01,0 0,0 0,0 0,0 0,0 0,0 0,0l0.01 -0.01c0,0 0,0 0.01,0 0,0 0,0 0,0 0,0 0,0 0.01,0 0,0 0,0 0,0 0,0 0,0 0,0 0,0 0,0 0,0 0,0 0,0 0,0 0,0 0,0 0,0 0.01,0 0,0 0.01,0 0,0 0,0 0,-0.01 0,0 0,0 0,0 0,0 0,0 0.01,0 0,0 0,0 0,0 0,0 0,0 0,0 0,0 0,0 0,-0.01 0,0 0,0 0,0 0.01,0 0.01,0 0.01,0 0,0 0,0 0,0 0,0 0,0 0,0 0,0 0,0 0,0 0,0 0,0 0,0 0,-0.01 0,-0.01 0,-0.01 0,0 0,0 0.01,0 0,0 0,-0.01 0,-0.01 0,0 0,0 0,-0.01 0,0 0,0 0,0 0,0 0,0 0,0 0,0 0,0 0,0 0,0 0,-0.01 0,-0.02 0,0 0,0 0,0 0,0 0,0 0,0 0,0 0,0 0,0 0.01,0 0.01,0 0.01,0 0,0 0,0 0,0 0,0 0,0 0,-0.01 0.01,0 0.01,0 0.01,0 0.01,0 0.01,0 0.01,0 0,0 0,0 0,0 0.01,0 0.01,0 0.01,0 0,0 -0.01,0 -0.01,0 0,0 0,0 0,0 0,0 0,0 0,0 0,0 0,0 0,0 -0.01,0 -0.01,0 -0.01,0 -0.01,0 -0.01,0 -0.01,0 0,0 0,0 0,0 0,0 -0.01,0 -0.01,0 0,0 0,0.01 0,0.01 -0.01,0 -0.01,0 -0.01,0 0,0 0,-0.01 0,-0.01 0,0 0,0 0,0 0,0 0,0 0,0l0 0c0,0 0,0 0,0 0,0 0,0 0,0 0,0 0,0 0,0l0 0c0,0 0,0 0,0.01 0,0 0,0 -0.01,0 0,0 0,0 0,0 0,0 -0.01,0 -0.01,0 0,0 0,0 0,0 0,0 -0.01,0 -0.01,0l0 0c0,0.01 0,0 0,0l0 0.01c0,0 0,0 0,0 0,0 0,0 0,0 0,-0.01 0,-0.01 0,-0.01 0,0 0,0 0,0 0,0 0,0 0,0l0 0.01c-0.01,0 0,0 -0.01,0 0,0 0,0 0,0 0,0 0,0 0,0z"/>
    <path class="fil0" d="M0.08 0.08c0,-0.01 0,-0.01 0,-0.01 0,0 0,0 0.01,0 0,0 0,0 0,0 0,0 0,0 0,0 0,-0.01 0,-0.01 0,-0.01 0,0 0,0 0,0 0,0 0.01,0 0.01,0 0,0 0,0 0,0.01 0,0 0,0 0,0 0,0 0,0 0,0 0,0 0,0 0,0 0,0.01 0,0.01 0,0.01 0,0 -0.01,0 -0.01,0l0 0c0,0 0,0 0,0 0,0 0,0 0,0 0,0 0,0 0,0 0,0 0,0.01 0,0.01 0,0 0,0 -0.01,0 0,0.01 0,0.01 0,0.01 0,0 0,0 0,0 0,0 0,0.01 0,0.01 0,0 -0.01,0 -0.01,0 0,0 0,0 0,-0.01 0,0 0,0 0,0 0,-0.01 0,-0.01 0,-0.01 0,0 0,0 0,0 0,0 0,0 0,0l0 0c0.01,0 0,-0.01 0.01,-0.01 0,0 0,0 0,0 0,0 0,0 0,0 0,0 0,0 0,0l0 0zm-0.01 0.01c0,0.01 0,0.01 0,0.01 0,0.01 0,0.01 0,0.01 0,0.01 0,0 0,0.01 0,0 0,0 0,0 0,0 0,0 0,0.01 0,0 0,0 0,0 0,0 0,0 0,0 0,0 0,0 0,0 0,0 0,0 0.01,0 0,0 0,0 0,0.01 0,0 0,0 0,0 0,0 0,0 0,0 0,0 0,0 0,0 0,0 0,0 0,0 0,0 0,0 0,0 0,0 0,0 0,0l0 0c0,0 0,0 0,0 0.01,0 0,0 0.01,0 0,0.01 0,0.01 0,0.01 0,0 0,0 0,0l0 0 0 0c0,0 0,0 0,0 0,0 0,0 0,0l0 0 0 0c0,0 0,0 0,0 0.01,0 0.01,0 0.01,0 0,0.01 0,0 0,0.01 0,0 0,0 0,0 0,0 0,0 0,0 0.01,0 0,0 0.01,0 0,0 0,0 0,0.01l0 0c0,0 0,0 0,0 0,0 0,0 0,0 0,0 0,0 0,0.01 0,0 0,0 0,0 0,0 0,0 0,0 0,0 0,0 0,0 0,0 0,0 0,0.01 0,-0.01 0.01,-0.01 0.01,-0.01 0,0 0,0 0.01,0 0,0 0,0 0,0 0,0 0.01,0 0.02,0 0,0 0,0 0,0 0,0 0,0 0.01,0 0,0 0,-0.01 0,-0.01 -0.01,0 -0.01,0 -0.01,0 0,0 0,-0.01 0,-0.01 0,0 0,-0.01 0,-0.01l0 0c0,0 0,0 0,0 0,0 0,0 0.01,0l0 0c0,0 0,-0.01 0,-0.01 0,0 0,0 0,0 0,0 0,0 0,0 0,-0.01 0,-0.01 0,-0.01 0,0 0,0 0.01,0 0,0 0,0 0,0 0,0 0,0 0,0 0,0 0,0 0,0 0,-0.01 0,-0.01 0,-0.01 0,0 0,0 0,0 0,0 0,0 0,0 0,0 0,0 0,0 0,-0.01 0,-0.03 0,-0.03l0 0c0,0 0,0 0,0 0,0 0,0 0,0 0,-0.01 0,-0.01 0,-0.01 0,0 0,0 0,0 0,0 0,0 0,0 -0.01,0 -0.01,0 -0.01,-0.01l0 0c0,0 0,0 0,0 0,0 0,0 0,0 0,0 0,0 -0.01,-0.01 0,0 0,0 0,0 0,0 0,0 0,0 0,0 0,0 0,0 0,0 -0.01,0 -0.01,0 0,0 0,0 0,0 0,-0.01 0,0 0,-0.01 0,0 0,0 0,0 -0.01,0 -0.01,0 -0.01,0 0,0 0,0 -0.01,0 0,0 0,0 0,0 -0.01,0 -0.01,0 -0.01,0l0 0c-0.01,0 -0.01,0 -0.01,0 0,0 0,0 0,0 0,0 0,0 0,0 0,0 0,0 0,0.01 -0.01,0 -0.01,0 -0.01,0 0,0 0,0 0,0 0,0 0,0 0,0l0 0c0,0 0,0 -0.01,0l0 0c0,0 0,0.01 0,0.01 0,0 0,0 0,0 0,0 0,0 0,0 0,0 0,0 0,0 0,0 0,0 -0.01,0l0 0.01c0,0 0,0 0,0l0 0c0,0 0,0 0,0 0,0.01 0,0 0,0.01 0,0 0,0 0,0 0,0 0,0 0,0z"/>
    <path class="fil0" d="M0 0.16c0,0 0,0 0.01,0 0,0 0,0 0,0 0,0 0,0 0,0 0,0 0,0 0,0 0,0 0,0 0,0 0,0 0,0 0,0 0,0.01 0,0.01 0,0.01 0,0 0,0 0,0 0,0 0,0 0.01,0 -0.01,0 0,0 -0.01,0 0,0 0.01,0 0.01,0 0,0.01 0,0.01 0,0.01 0,0 0,0 0,0 0,0 0,0 0,0.01 0,0 0,0.01 0,0.01 0,0 0,0 0,0 0,0.01 0,0.01 0,0.01 0,0 0,0 -0.01,0 0,0.01 0,0.01 0.01,0.01 0,0 0,0 0,0 0.01,0 0,0 0,0l0.01 -0.01 0 0c0,0 0,0.01 0,0.01 0.01,0 0.01,0 0.01,0l0 0c0,0 0,-0.01 0,-0.01 0,0 0,0 0,0 0.01,0 0.01,0 0.01,0 0.01,0 0.01,0 0.01,0 0,0 0,0 0,0 0,0 0,-0.01 0,-0.01 0,0 0,0 0,0 0,0 0,0 0,0 0,-0.01 0.01,-0.01 0.01,-0.01 0,0 0,-0.01 0,-0.01 0,0 0,0 0,-0.01 0,0 0,0 -0.01,0 0,0 0,0 0,0 0,0 0,0 0,-0.01 0,0 0,0 0,0 0,0 0,0 0,0l0 0c0,0 0,-0.01 -0.01,-0.01 0,0 0,0 0,0 0,0 0,0 0,0 0,0 0,0 0,0 0,0 0,0 0,0 0,0 0,0 0,0l-0.01 0c0,0 0,0 -0.01,0 0,0 0,0 0,0 0,0 0,0 0,0 0,0 0,0 0,0l-0.01 -0.01c0,0 0,0 0,0 0,0 0,-0.01 0,-0.01 0,0 0,0 0,0 0,0 0,0 0,0 0,0 0,0 0,0 0,0 0,0 0,0 0,0 0,0 0,0 0,0 0,0.01 0,0.01 0,0 0,0 0,0 0,0 0,0.01 0,0.01 0,0 0,0 0,0 0,0 0,0 0,0 0,0 0,0 0,0 -0.01,0 -0.01,0 -0.01,0 -0.01,0 -0.01,0 -0.01,0 0,0 0,0.01 0,0.01z"/>
    <path class="fil0" d="M0.2 0.14c0,0.01 0,0.01 0,0.01 0,0 0,0 0,0 0,0 0,0 0,0 0,0 0.01,0 0.01,0 0,0 0,0 0,0 0,0.01 0,0 0,0.01 0,0 0,0 0,0 0,0 0,0 0,0 0,0 0,0 0,0 0,0 0,0 0,0 0,0 0,0.01 0,0.01 0,0 0,0 0,0 0,0 0,0 0,0 0.01,0 0,0.01 0,0.01 0,0 0,0 0,0l0 0c0,0 0,0 0,0.01 0,0 0,0 0,0 0,0 0,0 0,0.01 0,0 0,0 0,0 0,0 0,0 0,0 0,0 0,0 0,0 0,0 0,0 0,0 0,0 0,0 0,0l0 0c0.01,0 0.01,0 0.01,0 0,0 0,0 0,0 0,0 0,0 0,0l0 0.01c0.01,0 0.01,0 0.01,0 0,0 0,0 0,0l0 0c0,0 0,0 0,0 0,0 0,0 0,-0.01 0,0 0,0 0,0 0,0 0,0 0,0 0,0 0,0 0,0 0,0 0,0 0,0 0,0 0,0 0.01,0 0,0 0,0 0,0 0,0 0,-0.01 0,-0.01 0,0 0,0 0,0 0,0 0,0 0.01,0 0,0 0,-0.01 0,-0.01 0,0 0,0 0,0 0,0 0,-0.02 0,-0.02 0,0 0,0 0,-0.01 0,0 0,0 0,0 -0.01,0 -0.01,0 -0.01,0 0,0 0,0 0,0 0,0 0,0 0,-0.01 0,0 0,0 0,0 0,0 0,0 0,0 0,0 0,0 0,0 -0.01,-0.01 0,0 -0.01,-0.01l0 0c0,0 0,0 0,0 0,0 -0.01,0 -0.01,0 0,0 0,0 0,0 0,0 0,0 0,0 -0.01,0 -0.01,-0.01 -0.01,-0.01 0,0 0,0 0,0 0,0.01 0,0.01 0,0.01 0,0 0,0 0,0 0,0.01 0,0.01 -0.01,0.01 0,0 0,0 0,0l0 0c0,0 0,0 0,0 0,0 0,0 0,0 0,0 0,0 0,0z"/>
    <path class="fil0" d="M0.04 0.22c0,-0.01 0,0 0.01,-0.01 0,0 0,0 0,0 0,0 0,0 0,0 0,0 0.01,0 0.01,0 0,0 0,0 0,0 0,0 0,-0.01 0,-0.01 0.01,-0.01 0.01,0 0.01,-0.01 0,0 0,0 0,0 0,0 0,0 0,0 0,-0.01 0,-0.02 0,-0.02 -0.01,0 0,0 -0.01,0 0,-0.01 0,-0.01 0,-0.01 0,0 0,0 0,0 0,0 0,0 0,0 0,0 0,0 0,0 0,0 0,0 0,-0.01 0,0 0,0 0,0 0,0 -0.01,0 -0.01,0 0,0 0,0 0,0 0,0 0,0 0,-0.01 0,0 0,0 0,0 -0.01,0 -0.01,0 -0.01,0 0,0 0,0.01 -0.01,0.01 0,0 0,-0.01 0,-0.01 0,0 0,0 0,-0.01 -0.01,0 -0.01,0 -0.01,0 0,0 0,0 0,0 0,0 0,0 0,0 0,0 0,0 0,0 0,0 0,0 0,0 0,0 0,0 0,0.01 0,0 0,0.01 0,0.01 0,0 -0.01,0 -0.01,0 0,0 0,0 0,0 -0.01,0 -0.01,0 -0.01,0 0,0.01 0,0 0,0.01 0,0 0,0 0.01,0 0,0 0,0 0,0 0,0 0,0.01 0,0.01 0,0 0,0 0,0 0,0 0,0 0,0 0,0 0,0 0,0 0.01,0.01 0.01,0.01 0.01,0.01 0,0 0,0 0,0.01 0,0.01 0,0.01 0,0.01 0,0 0,0.01 0,0.01 -0.01,0 -0.01,0 -0.01,0 0,0 0,0.01 0,0.01 0,0 0,0 0.01,0 0,0 0.01,0 0.01,0 0,0 0,0 0,0 0,0 0,0 0.01,0 0,0 0,0 0,0.01 0,0 0,0 -0.01,0 0,0 0,0 0,0 0,0 -0.01,0 -0.01,0 0,0 0,0 0,0 -0.01,0 0,0 -0.01,0 0,0 0,0.01 0,0.01 0,0 0,0 0,0l0 0c0,0 0.01,0 0.01,0.01 0,0 0,0 0,0 0,0 0,0 0,0 0,0 0,0.01 0,0.01 0,0 0,0 0.01,0 0,0 0,0 0,0 0,0 0.01,0 0.01,0 0,0 0,0 0,0.01 0,0 0,0 0,0 0,0 0.01,0 0.01,0 0,0 0,0 0,0 0,0 0,0 0,0 0,0 0,0.01 0,0.01 0,0 0,0 0,0 0,0 0.01,0 0.01,0 0,0 0,0 0,0 0,0 0,0 0,0 0,0 0,0.01 0,0.01 0,0 0,0 0,0 0,0 0,0 0,0 0.01,0 0.01,0 0.01,0 0,0 0,0 0,0 0,0 0,0 0,0.01 0,0 0,0 0,0 0.01,0 0.01,0 0.01,0 0,0 0,0 0,0 0,0 0.01,0 0.01,0 0,0 0,0 0,0 0.01,0.01 0.02,0.01 0.02,0.01l0.02 -0.01c0,0 0.01,0 0.01,0l0 0c0.01,0 0.01,0 0.01,0 0,0 0.01,0 0.01,0 0,0 0,0 0.01,0 0,0 0,0 0,0 0.01,0 0.01,0 0.01,0 0,-0.01 0.01,-0.01 0.01,-0.01l0 0c0,0 0,0 0.01,0 0,0 0,0 0,0 0.01,0 0.01,0 0.01,0 0,0 0,0 0,0 0,-0.01 0,-0.01 0,-0.01 0.01,0 0.01,0 0.01,0 0,0 0,0 0,0 0,0 0,0 0,0l0 0c0.01,-0.01 0.01,-0.01 0.01,-0.01 0,0 0,0 0,0 0,0 0,0 0,0 0,0 0,0 0,0 0,0 0,0 0,0l0 0c0,0 0,0 0,0 0,0 0,0 0,0 0,0 0,0 -0.01,0l0 0.01c0,0 0,0 0,0 0,0 0,0 0,0 0,0 0,0 0,0 -0.01,0 -0.01,0 -0.01,0 0,0 0,0 0,0 0,0.01 0,0.01 0,0.01 -0.01,0 0,0 -0.01,0 0,0 0,0 0,0 0,0 0,0 0,0 0,0 0,0 0,0 0,0 0,0 0,0 0,0 0,0 0,0 -0.01,0 -0.01,0 -0.01,0 0,0 0,0 0,0 -0.01,0 -0.01,0 -0.01,0l-0.01 0.01c0,0 0,0 0,0 0,0 0,0 0,0 0,0 -0.01,0 -0.01,0l0 0c0,0 0,0 0,0 -0.01,0 -0.02,0 -0.02,0 0,0 0,0 -0.01,0 0,0 0,0 0,0 -0.01,0 -0.01,0 -0.01,0 -0.01,0 -0.01,0 -0.02,0 0,0 0,0 0,0 0,0 -0.01,0 -0.01,0 0,0 0,0 0,0 0,0 0,0 -0.01,0 0,0 0,0 0,0 0,0 0,0 0,0 -0.01,0 -0.01,0 -0.01,0 0,0 0,-0.01 0,-0.01 0,0 0,0 0,0 0,0 0,0 0,0 -0.01,0 0,0 0,0 -0.01,0 -0.01,0 -0.01,0 0,0 0,0 0,0 0,0 0,0 0,-0.01 0,0 0,0 0,0 0,0 0,0 0,0 0,0 0,0 0,0 0,0 0,0 -0.01,0 0,0 0,0 0,0 0,-0.01 0,-0.01 0,-0.01 0,0 0,0 0,0 0,0 0,0 0,0 0,0 0,0 0,0 0,0 0,0 0,0 -0.01,0 -0.01,0 -0.01,0 0,0 0,-0.01 0,-0.01 0,0 0,0 0,0 0,0 -0.01,0 -0.01,0 0,0 0,0 0,0 0,0 0,0 0,0 -0.01,-0.01 -0.01,0 -0.01,-0.01 0,0 0,0 0,0l0 0c0,0 0,0 0,0 0,0 0,0 0,0 0,-0.01 0,-0.01 -0.01,-0.01 0,0 0,0 0,0 0,0 0,0 0,0l0 -0.01c0,0 0.01,0 0.01,0l0 0c0,0 0,0 0,0 0.01,0 0.01,0 0.01,0 0.01,0 0.01,0 0.01,0 0,0 0,-0.01 0,-0.01l0 0c-0.01,0 -0.01,0 -0.01,0 0,0 0,0 0,0 0,0 0,0 0,0 0,0 -0.01,0 -0.01,0 -0.01,0 -0.01,0 -0.01,-0.01 0,0 0,0 0.01,0 0,0 0,-0.01 0,-0.01 0,0 0,0 0,0 0,0 0,0 0,-0.01 0,0 0,-0.01 0,-0.01 0,0 0,0 0,-0.01 0,0 -0.01,0 -0.01,0 0,0 0,0 0,0 0,0 0,0 0,0 0,0 0,0 0,0 0,-0.01 0,-0.01 0,-0.01 0,0 0,0 0,0 0,0 0,0 0,0 -0.01,0 -0.01,0 -0.01,0 0,0 0,0 0,-0.01 0,0 0,0 0,0 0.01,0 0.01,0 0.01,0 0.01,0 0.01,0 0.01,0 0,0 0,0 0,-0.01 0,0 0,-0.01 0,-0.01 0,0 0,0 0,0 0,0 0,0 0,0 0,0 0,0 0,0 0,0 0,0 0,0 0,0 0,0.01 0,0.01 0.01,0 0.01,0 0.01,0 0,0 0,0 0,0 0,0.01 0,0.01 0,0.01 0.01,0 0.01,-0.01 0.01,-0.01 0,0 0,0 0,0l0.01 0c0,0 0,0.01 0,0.01 0,0 0,0 0,0 0,0 0,0 0,0l0 0c0,0 0,0 0.01,0 0,0.01 0,0.01 0,0.01 0,0 0,0 0,0 0,0 0,0 0,0 0,0 0,0 0,0.01 0,0 0,0 0,0 0,0 0,0 0,0 0,0 0,0 0,0 0.01,0 0.01,0 0.01,0 0,0 0,0.02 0,0.02 0,0.01 -0.01,0 -0.01,0.01 0,0 0,0 0,0 0,0.01 0,0.01 0,0.01 0,0 0,0 -0.01,0 0,0 0,0 0,0 0,0 -0.01,0 -0.01,0l0 0c0,0.01 0,0.01 0,0.01 0,0 0,0.01 0,0.01 0,0 0,0 0,0 0,0 0.01,0 0.01,0 0,0 0,0 0,0l0.01 0c0,0 0.01,0 0.01,0 0,0 0,0 0,0 0.01,0 0.01,0 0.01,0 0,0 0,0 0,0 0.01,0 0.01,0 0.01,0 0,0 0,0 0,0 0,0 0,0 0,0.01 0,0 0,0 0,0 0,0 0,0 0,0l0 0c0,0.01 0,0.01 0.01,0.01 0,0 0,0 0,0 0,0 0,0 0,0 0,0 0.01,0 0.01,0 0,0 0,0 0,0 0,0 0,0 0.01,0 0,0 0,0 0,0 0,0 0,0 0.01,0l0 0c0,0 0,0 0,0 0,0 0,0 0,0 0,-0.01 0,-0.01 0,-0.01 0,0 0,-0.01 0,-0.01 0,0 0,0 0,0 0,-0.01 0,-0.01 0.01,-0.01 0,0 0,0 0,0 0,0 0,0 0.01,0 0,0 0,0 0,0 0,0.01 0,0.01 0,0.01 0,0 0,0 0,0.01 0,0 0,0 0.01,0 0,0 0,0 0,0 0,0 0,0 0,0 0,0 0,0 0,0.01 0,0 0,0 0,0 0,0 0,0 0,-0.01 0,0 0.01,0.01 0.01,0 0.01,0 0,0 0.01,0 0,0 0,0 0,0 0,0 0,0 0.01,0 0,0 0,0 0,0 0,0 0,0 0,0 0,0 0,0 0,0 0,0 0,-0.01 0,-0.01 0,0 0,0 0,0 0,0 0,0 0,-0.01 0,0 0,0 0.01,0 0,0 0,0 0,0 0,0 0,0 0.01,0 0,0 0.01,0 0.01,0 0,0 0,0 0,0 0,0 0,0 0,0 0.01,-0.01 0.01,-0.01 0.01,-0.01 0,0 -0.01,0 -0.01,-0.01 0,0 0,0 0,0 0,0 0,0 0,0 0,0 0,0 -0.01,0l0 0c0,0 0,0 0,0 0,0 0,0 0,0 0,0 0,0 0,0 0,0 0,0 0,0 0,0 0,0 0,0 0,-0.01 0,-0.01 0,-0.01 0,0 0,0 0,0 0,-0.01 0,-0.01 0,-0.01l0 0c0,0 0,0 0,0 0,0 0.01,-0.01 0,-0.01 0,0 0,0 0,0 0,0 0,0 0,0 0,0 0,-0.01 0,-0.01 0,0 0,0 0,0 0,0 0,0 0,0 0,0 0,0 0,0 0,0 0,0 0,0 0,-0.01 0,0 0,-0.01 0,0 0,0 0,0 0,0 -0.01,0 -0.01,0 0,0 0,0 0,0 0,0 0,0 0,0 0,0 0,0 0,-0.01l0 0c0,0 0,0 0,0 -0.01,0 0,0 0,0 0,0 0,0 0,0l0 0c0,0 0,0 0,0 0,-0.01 0.01,-0.01 0.01,-0.01 0,0 0,0 0,0 0,0 0,0 0,-0.01 0,0 0,0 0,0 0,0 0,0 0,0 0,0 0,0 0,0 0.01,0 0,0 0.01,0.01 0,0 0,0 0,0 0,0 0.01,0 0.01,0 0,0 0,0 0.01,0 0,0 0,0.01 0,0.01 0,0 0,0 0,0 0,0 0,0 0,0 0,0 0,0 0,0 0,0 0,0 0,0.01 0,0 0,0 0,0 0,0 0.01,0 0.01,0 0,0 0,0 0,0 0,0 0,0 0,0.01 0,0 0,0 0,0 0,0 0,0.01 0,0.01 0,0 0,0 0,0 0,0.01 0,0.01 0,0.01 0,0 0,0 0,0l0 0.01c0,0 0,0 0,0 0,0 0,0 0,0 -0.01,0 0,0.01 -0.01,0.01 0,0 0,0 0,0 0,0 -0.01,0 -0.01,0 0,0 0,0 0,0 0,0.01 0,0.01 0,0.01 0.01,0 0.01,0 0.01,0 0.01,0 0.01,0 0.01,0 0,0 0.01,0 0.01,0 0,0 0,0 0.01,0 0,0 0.01,0 0.01,0 0,0 0,0 0,0 0,0 -0.01,0 -0.01,0l0 0c0,0 0,0 0,0 0,0 0,0 0,0 0,0.01 -0.01,0 -0.01,0.01l0 0c-0.01,0 0,0 -0.01,0 0,0 0,0 -0.01,0 0,0 0,0 0,0 0,0 0,0.01 0,0.02 0,0 0,0 0,0 0,0 0,0.01 0,0.01 0,0 0,0 0,0 0,0.01 0,0 0,0.01 0,0 0,0 0,0 0,0 0,0 0,0l0 0c0,0 0,0 0,-0.01 0,0 0,0 0,0 0,0 0,0 0,0 0,-0.01 0,-0.02 0,-0.02 0,0 0,-0.01 0,-0.01 0.01,0 0.01,0 0.02,0 0,0 0,0 0,0 0,-0.01 0.01,0 0.01,-0.01 0.01,0 0.01,0 0.01,0 0,0 0,0 0,0 0,0 0,0 0,0 0,0 0,0 -0.01,0 0,0 0,0 0,0 0,0 -0.01,0 -0.01,0 0,0 0,0 0,0 0,0 0,0 0,0 -0.01,0 -0.01,0 -0.01,0 0,0 -0.01,0 -0.01,0 0,0 0,0 0,0 -0.01,0 -0.01,0 -0.01,0 0,0 0,-0.01 0,-0.01 0,0 0,0 0.01,0 0,0 0,0 0,0 0.01,0 0,-0.01 0.01,-0.01 0,0 0,0 0,0 0,0 0,0 0,0 0,-0.01 0,0 0,-0.01l0 -0.01c0,0 0,0 0,0 0,-0.01 0,-0.01 0,-0.01 0,0 0,0 0,-0.01 0,0 0,0 0,0 0,0 0,0 -0.01,0 0,0 0,0 0,-0.01 0,0 0,0 0,0l0 0c0,0 0,0 0,-0.01l0 0c-0.01,0 0,0 -0.01,0 -0.01,0 -0.01,0 -0.01,0 0,0 0,0 0,-0.01l-0.01 0c0,0 0,0 0,0 0,0 0,0 0,0 0,0.01 0,0.01 0,0.01 0,0 -0.01,0 -0.01,0.01 0,0 -0.01,0 -0.01,0 0,0 0,0 0.01,0 0,0 0,0 0,0 0,0.01 0,0.01 0,0.01 0,0 0,0 0,0 0,0 0,0 0,0 0,0 0,0 0,0 0.01,0.01 0.01,0.01 0.01,0.01 0,0 0,0 0,0 0,0.01 0,0.02 0,0.03 0,0 0,0 0,0 0,0 0,0 0,0.01 0,0 -0.01,0 0,0 0,0 0,0 0,0 0.02,0 0.01,0 0.01,0.01 0,0 0,0 0,0.01 0,0 0,0 0,0 -0.01,0 -0.01,0 -0.01,0 -0.01,0 -0.01,0 -0.01,0 0,0 0,0 0,0 0,0 0,0 0,0l0 0c-0.01,0 -0.01,0 -0.01,0 0,0.01 0,0.01 0,0.01 0,0.01 0,0 0,0.01 0,0 0,0 -0.01,0 0,0 0,0 -0.01,0 0,0 0,0 0,0 0,0 0,0 0,0 0,0 -0.01,0 -0.01,0 0,0 0,0.01 0,0l0 0c-0.01,0 -0.01,-0.01 -0.01,-0.01 0,0 0,0 0,0 0,-0.01 0,-0.01 0,-0.01 0,0 -0.01,0 -0.01,0 0,0 0,0 0,0 -0.01,0 -0.01,0 -0.01,0.01 0,0 0,0 0,0 0,0.01 0,0.01 0,0.01 0,0 0,0.01 0,0.01 0,0 0,0 0,0 0,0 0,0 -0.01,0 0,0 -0.01,0 -0.02,0 0,0 0,0 0,0 0,0 0,0 -0.01,0 0,0 0,-0.01 0,-0.01 0,0 0,0 0,0 0,0 0,0 0,0 0,-0.01 0,-0.01 -0.01,-0.01 0,0 0,0 -0.01,0 0,0 0,0 -0.01,0 0,0 0,0 0,0 -0.01,0 -0.01,0 -0.01,0 -0.01,0 -0.01,-0.01 -0.01,-0.01l0 0c0,0 0,0 0,0z"/>
    <path class="fil0" d="M0.1 0.03l0 0c0,0 0,0 0,0.01l0 0c0,0 0,0 0.01,0 0,0 0,0 0,0 0,0 0,0 0,0l0 0c0,-0.01 0,-0.01 0,-0.01 0,-0.01 0,-0.01 -0.01,-0.01 0,0 0,0 0,-0.01 0,0 0,0 0,0 0,0 0,0 0,0 0,0 0,0 0,0 0,0 0,0 0,-0.01 0,0 -0.01,0 -0.01,0 0,0 0,0 0,0 0,0 0,0 0,0 0,0.01 0,0.01 -0.01,0.01 0,0 0,0 0,0 0,0 0,0 0,0 0,0 0,0 0,0 0,0 0,0 0,0 0,0 -0.01,0 -0.01,0 -0.01,0 -0.01,0 -0.01,0.01 0,0 0,0 0,0 0,0 0.01,0 0.01,0 0,0.01 -0.01,0.01 0,0.01 0,0 0,0 0,0 0,0 0,0 0,0 0,0 0,0 0,0 0,0 0.01,0 0.01,0 0,0 0,0 0,0 0,0 0,0 0,0 0,0 0,0 0,0 0,0 0,0 0.01,0 0,0 0,0 0,0 0,-0.01 0,0 0,-0.01 0.01,0 0,0 0.01,0 0,0 0,0 0,0 0,0 0,0 0,0.01 0,0 0,0 0,0z"/>
    <path class="fil0" d="M0 0.16c0,0 0,-0.01 0,-0.01 0,0 0,0 0.01,0 0,0 0,0 0.01,0 0,0 0,0 0,0 0,0 0,0 0,0 0,0 0,0 0,0 0,0 0,-0.01 0,-0.01 0,0 0,0 0,0 0,0 0,-0.01 0,-0.01 0,0 0,0 0,0 0,0 0,0 0,0 0,0 0,0 0,0 0,0 0,0 0,0 0,0 0,0 0,0 0,0 0,0.01 0,0.01 0,0 0,0 0,0l0.01 0.01c0,0 0,0 0,0 0,0 0,0 0,0 0,0 0,0 0,0 0.01,0 0.01,0 0.01,0l0.01 0c0,0 0,0 0,0 0,0 0,0 0,0 0,0 0,0 0,0 0,0 0,0 0,0 0,0 0,0 0,0 0.01,0 0.01,0.01 0.01,0.01l0 0c0,0 0,0 0,0 0,0 0,0 0,0 0,0.01 0,0.01 0,0.01 0,0 0,0 0,0 0.01,0 0.01,0 0.01,0 0,0.01 0,0.01 0,0.01 0,0 0,0.01 0,0.01 0,0 -0.01,0 -0.01,0.01 0,0 0,0 0,0 0,0 0,0 0,0 0,0 0,0.01 0,0.01 0,0 0,0 0,0 0,0 0,0 -0.01,0 0,0 0,0 -0.01,0 0,0 0,0 0,0 0,0 0,0.01 0,0.01l0 0c0,0 0,0 -0.01,0 0,0 0,-0.01 0,-0.01l0 0 -0.01 0.01c0,0 0.01,0 0,0 0,0 0,0 0,0 -0.01,0 -0.01,0 -0.01,-0.01 0.01,0 0.01,0 0.01,0 0,0 0,0 0,-0.01 0,0 0,0 0,0 0,0 0,-0.01 0,-0.01 0,-0.01 0,-0.01 0,-0.01 0,0 0,0 0,0 0,0 0,0 0,-0.01 0,0 -0.01,0 -0.01,0 0.01,0 0,0 0.01,0 -0.01,0 -0.01,0 -0.01,0 0,0 0,0 0,0 0,0 0,0 0,-0.01 0,0 0,0 0,0 0,0 0,0 0,0 0,0 0,0 0,0 0,0 0,0 0,0.01 0,0 0,0 0,0 0,0 0,0 0,0 0,0 0,0 0,0 0,0 0.01,0 0.01,0 0,0.01 0,0.01 0,0.01 0,0 0,0.01 0,0.01 0,0.01 0,0.01 0,0.01 0,0 0,0 0,0 0,0 0,0.01 0,0.01 -0.01,0 -0.01,0 -0.01,0 0,0.01 0,0.01 0.01,0.01 0,0 0.01,0 0.01,0 0,0 0,0 0,0 0,0 0,0 0,0 0,0 0,0 0.01,0l0 0c0,0 0,0.01 0,0.01 0,0 0,0 -0.01,0 0,0 0,0 -0.01,0 0,0 0,0 0,0l0 0c0,0 -0.01,0 -0.01,0l0 0.01c0,0 0,0 0,0 0,0 0,0 0,0 0.01,0 0.01,0 0.01,0.01 0,0 0,0 0,0 0,0 0,0 0,0l0 0c0,0 0,0 0,0 0,0 0,0 0,0 0,0 0,0 0,0 0,0 0,0 0,0 0,0 0,0 0,0l0 0c0,0 0,-0.01 0,-0.01 0,0 -0.01,0 -0.01,0l0.01 0c0,0 0,0 0.01,0 0,-0.01 0,-0.01 0,-0.01 0,0 0,0 0,0 0,0 0.01,0 0.01,0 0,0 0,0 0,0l0 0c0,0 0,0 0,0 0,-0.01 0,-0.01 0,-0.01 0,0 0,0.01 0,0.01 0,0 0,0 0,0l0 0c0.01,0 0.01,0 0.01,0 0,0 0,0 0,0 0,0 0,0 0,0 0.01,0 0.01,0 0.01,0 0,0 0.01,0 0.01,0 0,0 0,0 0.01,0 0.01,0 0,0 0,0 0,0 0,0 0.01,0 0,0.01 0,0.01 0,0.01 0,0 0,0 0,0 0,0 0,0 0,0 0,0 0,0 0,0.01 0,0 0,0 0,0 0,0 0,0 0.01,0 0,0 0,0 0,0 0,0 0,0 0,0 0,0 0,0 0.01,0 0,0 0,0.01 0,0.01 0,0 0,0 0.01,0 0,-0.01 0,-0.01 0,-0.01 0.01,0 0.01,0 0.01,0 0,0 0,0 0,0 0.01,0 0.01,0 0.01,0 0,0 0,0 0,0 -0.01,-0.01 -0.01,-0.01 -0.01,-0.01 0,0 0,0 0,0 0,-0.01 0,-0.01 0,-0.01 0,0 0,0 0,0 0,0 0,0 0,0 0,0 0,0 0,0 0.01,-0.01 0.01,0 0.01,-0.01 0,0 0,0 0,0 0.01,0 0.01,0 0.01,0 0,0 0,0 0,0.01 0,0 0,0 0,0 0,0 0,0.01 0,0.01 0.01,0 0.01,0 0.01,0.01 0,0 0,0 0,0 0,0 0,0 0,0 0,-0.01 0.01,0 0.02,-0.01 0,0 -0.01,0 0,0 0.01,0 0.01,0 0.01,0 0,0 0,0 0,0 0,0 0,0 0,0 0,0 0,0 0,0 0,0 0,-0.01 0,-0.01 0,0 0,0 0,0 0,0 0,0.01 0,0.01 0,0 0,0 0,0 0,0 0,0 0,0 0,0 0,0 0,0 -0.01,0 -0.01,0 -0.01,0 0,0 0,0 0,0 -0.01,0 0,0 -0.01,0 0,0.01 -0.01,0 -0.01,0 0,0.01 0,0.01 0,0.01 0,0 0,0 0,0 0,-0.01 0,-0.01 0,-0.01 0,0 0,0 0,0 0,0 0,0 0,0 -0.01,0 -0.01,0 -0.01,0 0,-0.01 0,-0.01 0,-0.01 0,0 0,0 0,-0.01 0,0 0,0 0,0 -0.01,0 -0.01,0 -0.01,0 0,0 0,0 0,0 -0.01,0 -0.01,0 -0.01,0.01 0,0 0,0 0,0 0,0 0,0.01 0,0.01 0,0 0,0 0,0.01 0,0 0,0 0,0 0,0 0,0 0,0l0 0c-0.01,0 -0.01,0 -0.01,0 0,0 0,0 0,0 -0.01,0 -0.01,0 -0.01,0 0,0 0,0 0,0 0,0 -0.01,0 -0.01,0 0,0 0,0 0,0 0,0 0,0 0,0 -0.01,0 -0.01,0 -0.01,-0.01l0 0c0,0 0,0 0,0 0,0 0,0 0,0 0,-0.01 0,-0.01 0,-0.01 0,0 0,0 0,0 0,0 0,0 -0.01,0 0,0 0,0 0,0 0,0 0,0 -0.01,0 0,0 0,0 0,0 0,0 -0.01,0 -0.01,0l-0.01 0c0,0 0,0 0,0 0,0 -0.01,0 -0.01,0 0,0 0,0 0,0 0,0 0,-0.01 0,-0.01 0,0 0,0 0,-0.01l0 0c0,0 0.01,0 0.01,0 0,0 0,0 0,0 0.01,0 0.01,0 0.01,0 0,0 0,0 0,-0.01 0,0 0,0 0,0 0,-0.01 0.01,0 0.01,-0.01 0,0 0,-0.02 0,-0.02 0,0 0,0 -0.01,0 0,0 0,0 0,0 0,0 0,0 0,0 0,0 0,0 0,0 0,-0.01 0,-0.01 0,-0.01 0,0 0,0 0,0 0,0 0,0 0,0 0,0 0,0 0,-0.01 -0.01,0 -0.01,0 -0.01,0l0 0c0,0 0,0 0,0 0,0 0,0 0,0 0,0 0,-0.01 0,-0.01l-0.01 0c0,0 0,0 0,0 0,0 0,0.01 -0.01,0.01 0,0 0,0 0,-0.01 0,0 0,0 0,0 0,0 0,0 -0.01,0 0,0 0,-0.01 0,-0.01 0,0 0,0 0,0 0,0 0,0 0,0 0,0 0,0 0,0 0,0 0,0 0,0 0,0 0,0.01 0,0.01 0,0.01 0,0.01 0,0.01 0,0 0,0 -0.01,0 0,0 0,0 -0.01,0 0,0 0,0 0,0 0,0.01 0,0.01 0,0.01z"/>
    <path class="fil0" d="M0.16 0.2c0,0 0,0 0,0 0,0 0,0 0,0 0,0 0,0 0,0 0,0 0,0 0,0 -0.01,0 -0.01,0 -0.01,0 0,0 0,0 0,0 -0.01,0 -0.01,0 -0.02,0 0,0 -0.01,0 -0.01,0 0,0 0,0 0,0l-0.01 0.01c0,0 0,0 0,0 0,0 0,0 0,0l0 0c0,0 0,0 0,0 0.01,0 0.01,0 0.01,0 0,0 0,0 0.01,0 0,0 0,0 0,0 0,0.01 0,0.01 0,0.01 0,0 0.01,0 0.01,0 0.01,0 0,0 0.01,0 0,0 0,0 0,-0.01 0,0 0,0 0,0 0,0 0,0 0,0 0,0 0,0 0,0 0,0 0,0 0,0 0,0 0,0 0,0l0.01 -0.01c0,0 0,0 0,0z"/>
    <path class="fil0" d="M0.24 0.13c0,0.01 0,0.01 0,0.01l0 0c0,0 0,0 0,0 0,0.01 0,0.01 0,0.01 0.01,0 0.01,0 0.01,0 0,0 0,0 0,0 0,0.01 0,0.01 0,0.01 0,0 0,0 0,0.01 0,0 0,0 0,0l0 0.01c0,0.01 0,0 0,0.01 0,0 0,0 0,0 0,0 0,0 0,0 -0.01,0 0,0.01 -0.01,0.01 0,0 0,0 0,0 -0.01,0 -0.01,0 -0.01,0 0,0 0,0.01 0,0.01 0,0 0,0 0.01,0 0,0 0,0 0,0 0,0 0.01,0 0.01,0 0,0 0,0 0.01,0 0,0 0,0 0,0 0,0 0,0 0,0 0,0 0.01,0 0.01,0 0,0 0,0 0,0 0.01,0 0.01,0 0.01,0 0,0 0,0 0,0 0,0 0,0 0,0 0,0 0,0 -0.01,0 0,0.01 -0.01,0 -0.01,0.01 0,0 0,0 0,0 -0.01,0 -0.01,0 -0.02,0 0,0 0,0.01 0,0.01 0,0 0,0.01 0,0.02 0,0 0,0 0,0 0,0 0,0 0,0 0,0.01 0,0.01 0,0.01l0 0c0,0 0,0 0,0 0,0 0,0 -0.01,0 0,0 0,0 0,0 0,0.01 0,0.01 0,0.01 0,0 0,0 0,0 0,0 0,0 0,0 0,0 0,0 0,0 0,0 0,0 -0.01,0.01l0 0c0,0 0,0 0,0 0,0 0,0 0,0 0,0 0,0 -0.01,0 0,0 0,0 0,0.01 0,0 0,0 0,0 0,0 0,0 -0.01,0 0,0 0,0 0,0 -0.01,0 -0.01,0 -0.01,0l0 0c0,0 -0.01,0 -0.01,0.01 0,0 0,0 -0.01,0 0,0 0,0 0,0 -0.01,0 -0.01,0 -0.01,0 0,0 -0.01,0 -0.01,0 0,0 0,0 -0.01,0l0 0c0,0 -0.01,0 -0.01,0l-0.02 0.01c0,0 -0.01,0 -0.02,-0.01 0,0 0,0 0,0 0,0 -0.01,0 -0.01,0 0,0 0,0 0,0 0,0 0,0 -0.01,0 0,0 0,0 0,0 0,-0.01 0,-0.01 0,-0.01 0,0 0,0 0,0 0,0 0,0 -0.01,0 0,0 0,0 0,0 0,0 0,0 0,0 0,0 0,-0.01 0,-0.01 0,0 0,0 0,0 0,0 0,0 0,0 0,0 -0.01,0 -0.01,0 0,0 0,0 0,0 0,0 0,-0.01 0,-0.01 0,0 0,0 0,0 0,0 0,0 0,0 0,0 -0.01,0 -0.01,0 0,0 0,0 0,0 0,-0.01 0,-0.01 0,-0.01 0,0 -0.01,0 -0.01,0 0,0 0,0 0,0 -0.01,0 -0.01,0 -0.01,0 0,0 0,-0.01 0,-0.01 0,0 0,0 0,0 0,0 0,0 0,0 0,-0.01 -0.01,-0.01 -0.01,-0.01l0 0c0,0 0,0 0,0 0,0 0,-0.01 0,-0.01 0.01,0 0,0 0.01,0 0,0 0,0 0,0 0,0 0.01,0 0.01,0 0,0 0,0 0,0 0.01,0 0.01,0 0.01,0 0,-0.01 0,-0.01 0,-0.01 -0.01,0 -0.01,0 -0.01,0 0,0 0,0 0,0 0,0 -0.01,0 -0.01,0 -0.01,0 -0.01,0 -0.01,0 0,0 0,-0.01 0,-0.01 0,0 0,0 0.01,0 0,0 0,-0.01 0,-0.01 0,0 0,0 0,-0.01 0,-0.01 0,-0.01 0,-0.01 0,0 0,0 -0.01,-0.01 0,0 0,0 0,0 0,0 0,0 0,0 0,0 0,0 0,0 0,0 0,-0.01 0,-0.01 0,0 0,0 0,0 -0.01,0 -0.01,0 -0.01,0 0,-0.01 0,0 0,-0.01 0,0 0,0 0.01,0 0,0 0,0 0,0 0,0 0.01,0 0.01,0 0,0 0,-0.01 0,-0.01 0,-0.01 0,-0.01 0,-0.01 0,0 0,0 0,0 0,0 0,0 0,0 0,0 0,0 0,0 0,0 0,0 0,0 0,0 0,0 0.01,0 0,0.01 0,0.01 0,0.01 0,0 0,0.01 0,0.01 0.01,0 0.01,-0.01 0.01,-0.01 0,0 0,0 0.01,0 0,0 0,0 -0.01,0 0,0 0,0 -0.01,0 0,0 0,0 0,0 0,0 0,0 0,0 0,-0.01 0,-0.01 0,-0.01 0,0 0,0 -0.01,0 0,0 0,-0.01 0,0 0,0 0,0 0,0 0,0 0,0 0,0 0,0 0,0.01 0,0.01 0,0 0,0 0,0 0,0 0,0 0,0 0,0.01 0,0.01 0,0.01 -0.01,0 -0.01,0 -0.01,0 0,0 0,0 0,0 0,0 -0.01,0 -0.01,0 0,0 0,0 0,0 0,0 0,0.01 0,0.01 0,0 0,0 0,0 0,0 0,0 0,0 0.01,0 0.01,0 0.01,0 0,0.01 0,0.01 0,0.01 0,0 0,0 0,0 0,0 0,0 0,0 0,0 0,0 0,0 0,0 0,0 0,0 0.01,0.01 0.01,0.01 0.01,0.01 0,0 0,0 0,0.01 0,0 0,0 0,0 0,0.01 0,0.01 0,0.01l0 0c0,0 0,0 0,0.01 -0.01,0 -0.01,0 -0.01,0 0,0 0,0 0,0l0 0c0,0.01 0,0.01 0,0.01 0.01,0 0.01,0 0.01,0 0,0 0.01,0 0.01,0 0,0 0,0 0,0 0,0 0,0 0,0 0,0.01 0,0.01 0.01,0.01 0,0 0,0 -0.01,0 0,0 -0.01,0 -0.01,0 -0.01,0 -0.01,0 -0.01,0.01 0,0 0,0 0,0 0,0 0,0 0.01,0l0 0.01c0,0 0,0 0,0 0,0 0,0 0,0 0,0.01 0,0.01 0,0.01 0.01,0 0.01,0 0.01,0 0,0 0.01,0 0.01,0 0,0 0,0 0,0 0,0.01 0,0.01 0,0.01l0.01 0c0,0.01 0,0.01 0,0.01 0,0 0,0 0,0 0,0 0,0 0,0 0.01,0 0.01,0 0.01,0 0,0.01 0,0.01 0,0.01 0,0 0,0 0,0 0,0 0,0 0,0 0,0 0,0 0,0 0.01,0 0.01,0 0.01,0 0,0 0,0.01 0,0.01 0,0 0,0 0,0 0.01,0 0.01,0 0.01,0 0,0 0,0 0.01,0 0,0 0,0.01 0.01,0.01 0,0 0,0 0.01,0 0,0 0.01,0 0.01,-0.01 0.01,0 0.01,0 0.02,0 0,0 0,0 0.01,0 0,0 0,0 0,0l0.01 0c0,0 0,0 0,0 0.01,0 0.01,0 0.01,0 0,0 0.01,0 0.01,0 0,0 0,0 0,-0.01 0.01,0 0.01,0 0.01,0 0,0 0,0 0,0 0.01,0 0.01,0 0.01,0 0,0 0,0 0,0 0.01,0 0.01,0 0.01,0 0,0 0,0 0,0 0,-0.01 0,-0.01 0,-0.01 0.01,0 0.01,0 0.01,0 0,0 0,0 0,0 0,0 0,0 0,0l0.01 0c0,-0.01 0,-0.01 0,-0.01 0,0 0,0 0,0 0,0 0,0 0,0 0,0 0,0 0.01,-0.01 0,0 0,0 0,0 0,0 0,0 0,0 0,0 0,-0.01 0,-0.01l0 0c0,-0.01 0,-0.02 0,-0.02 0,-0.01 0,-0.01 0,-0.01l0 0c0,0 0,0 0,0 0,0 0,0 0,0 0.01,0 0,0 0.01,0 0,0 0,0 0.01,0 0,0 0,0 0,0 0.01,0 0.01,0 0.01,-0.01 0.01,0 0.01,0 0.01,0 0,0 0,0 0,0 0,0 0,0 0,0 0,0 0,0 0,0 -0.01,0 -0.01,0 -0.01,0l-0.01 0c0,0 0,0 0,0l-0.01 0c-0.01,0 -0.01,0 -0.02,0 0,0 0,0 0,0 0,0 0,0 0,0 0,-0.01 0,-0.01 0,-0.01 0.01,0 0.01,0 0.01,0 0,0 0.01,0 0.01,0 0,-0.01 0,-0.01 0,-0.01 0,0 0,0 0,0 0,0 0,0 0,-0.01 0,0 0,0 0,0 0,-0.01 0,-0.01 0,-0.01 0,0 0,-0.01 0,-0.01 0,0 0,0 0,0 0,0 0,0 0,0 0,-0.01 0,-0.01 0,-0.01 0,0 0,0 0,0 0,0 0,0 0,0 -0.01,-0.01 -0.01,-0.01 -0.01,-0.01 0,0 0,0 0,0 0,0 0,0 0,0 0,0 0,0 0,0 0,0 0,0 0,0l0 -0.01z"/>
    <path class="fil0" d="M0.07 0.09c0,0 0,0 0,0 0,0 0,0 0,0 0,-0.01 0,0 0,-0.01 0,0 0,0 0,0l0 0c0,0 0,0 0,0l0 -0.01c0.01,0 0.01,0 0.01,0 0,0 0,0 0,0 0,0 0,0 0,0 0,0 0,0 0,0 0,0 0,-0.01 0,-0.01l0 0c0.01,0 0.01,0 0.01,0l0 0c0,0 0,0 0,0 0,0 0,0 0,0 0,0 0,0 0.01,0 0,-0.01 0,-0.01 0,-0.01 0,0 0,0 0,0 0,0 0,0 0,0 0,0 0,0 0.01,0l0 0c0,0 0,0 0.01,0 0,0 0,0 0,0 0.01,0 0.01,0 0.01,0 0,0 0,0 0.01,0 0,0 0,0 0,0 0,0.01 0,0 0,0.01 0,0 0,0 0,0 0,0 0.01,0 0.01,0 0,0 0,0 0,0 0,0 0,0 0,0 0,0 0,0 0,0 0.01,0.01 0.01,0.01 0.01,0.01 0,0 0,0 0,0 0,0 0,0 0,0l0 0c0,0.01 0,0.01 0.01,0.01 0,0 0,0 0,0 0,0 0,0 0,0 0,0 0,0 0,0.01 0,0 0,0 0,0 0,0 0,0 0,0l0 0c0,0 0,0.02 0,0.03 0,0 0,0 0,0 0,0 0,0 0,0 0,0 0,0 0,0 0,0 0,0 0,0.01 0,0 0,0 0,0 0,0 0,0 0,0 0,0 0,0 0,0 -0.01,0 -0.01,0 -0.01,0 0,0 0,0 0,0.01 0,0 0,0 0,0 0,0 0,0 0,0 0,0 0,0.01 0,0.01l0 0c-0.01,0 -0.01,0 -0.01,0 0,0 0,0 0,0l0 0c0,0 0,0.01 0,0.01 0,0 0,0.01 0,0.01 0,0 0,0 0.01,0 0,0 0,0.01 0,0.01 -0.01,0 -0.01,0 -0.01,0 0,0 0,0 0,0 -0.01,0 -0.02,0 -0.02,0 0,0 0,0 0,0 -0.01,0 -0.01,0 -0.01,0 0,0 -0.01,0 -0.01,0.01 0,-0.01 0,-0.01 0,-0.01 0,0 0,0 0,0 0,0 0,0 0,0 0,0 0,0 0,0 0,-0.01 0,-0.01 0,-0.01 0,0 0,0 0,0 0,0 0,0 0,0l0 0c0,-0.01 0,-0.01 0,-0.01 -0.01,0 0,0 -0.01,0 0,0 0,0 0,0 0,0 0,0 0,0 0,-0.01 0,0 0,-0.01 0,0 0,0 -0.01,0 0,0 0,0 0,0l0 0 0 0c0,0 0,0 0,0 0,0 0,0 0,0l0 0 0 0c0,0 0,0 0,0 0,0 0,0 0,-0.01 -0.01,0 0,0 -0.01,0 0,0 0,0 0,0l0 0c0,0 0,0 0,0 0,0 0,0 0,0 0,0 0,0 0,0 0,0 0,0 0,0 0,0 0,0 0,0 0,0 0,0 0,0 0,-0.01 0,-0.01 0,-0.01 -0.01,0 -0.01,0 -0.01,0 0,0 0,0 0,0 0,0 0,0 0,0 0,0 0,0 0,0 0,-0.01 0,-0.01 0,-0.01 0,0 0,0 0,0 0,-0.01 0,0 0,-0.01 0,0 0,0 0,-0.01 0,0 0,0 0,-0.01zm0.03 0.07c0,0 0,0 0,0 0,0 0,0 0,0 0,0 0,0 0,0 0.01,0 0.01,0 0.01,0.01 0,0 0,0 0,0 0,0 0,0 0,0 0,0 0,0 0,0.01 0,0 0,0 0,0 0,0 0,0 0,0l0 0.01c0,0 0,0 0,0 0.01,0 0,0 0.01,-0.01 0,0 0,0 0,0 0,0 0.01,0 0.01,0 0,0 0,0 0,0 0.01,0 0.01,0 0.01,0 0,0 0.01,0 0.01,0 0,0 0,0 0,0l0 0c0.01,0 0.01,0 0.01,0 0,0 0,-0.01 0,-0.01 0,0 -0.01,0 -0.01,0 0,0 0,-0.01 0,-0.01 0,0 0,0 0,0 0,-0.01 0,-0.01 0.01,-0.01 0,0 0,0 0,0 0,-0.01 0,-0.01 0,-0.01 0,0 0,0 0,0 0,0 0,0 0,0 0,0 0,0 0,0 0,-0.01 0,-0.01 0,-0.01 0,0 0,0 0.01,0 0,0 0,0 0,0 0,-0.01 0,-0.01 0,-0.01 0,0 0,0 0,-0.01 0,0 0,0 0,0 0,-0.01 0,-0.01 0,-0.02 0,0 0,0 0,0 0,0 0,0 0,-0.01 0,0 0,0 0,0 0,0 0,0 0,0 0,0 0,0 0,0 -0.01,-0.01 -0.01,-0.01 -0.01,-0.01 0,0 0,0 0,0l0 0c0,0 0,0 0,0 0,0 0,0 0,-0.01 0,0 0,0 0,0 -0.01,0 -0.01,0 -0.01,0 0,0 0,0 0,0 0,0 0,0 0,0 0,0 0,0 0,0 0,0 0,0 0,0 0,0 0,0 0,0 -0.01,-0.01 -0.01,0 -0.01,-0.01 0,0 0,0 0,0l-0.01 0c0,0 0,0 0,0 0,0 -0.02,0 -0.02,0 -0.01,0 -0.01,0 -0.01,0 0,0 0,0 0,0 0,0 0,0 0,0 -0.01,0 -0.01,0 -0.01,0 0,0.01 0,0.01 0,0.01 0,0 0,0 -0.01,0 0,0 0,0 0,0 0,0 0,0 0,0l0 0.01c0,0 0,0 0,0 0,0 0,0 0,0 -0.01,0 -0.01,0 -0.01,0 0,0 0,0.01 0,0.01 0,0 0,0 0,0 0,0 0,0 0,0l0 0c0,0 0,0 0,0l0 0c0,0 0,0.01 0,0.01 -0.01,0 -0.01,0.02 0,0.03 0,0 0,0 0,0 0,0 0,0.01 0,0.01 0,0 0,0 0,0 0,0 0,0 0.01,0.01 0,0 0,0 0,0 0,0 0,0 0,0 0,0 0,0 0,0 0,0 0,0 0.01,0.01 0,0 0,0 0,0 0,0 0,0 0,0 0,0 0,0 0.01,0 0,0.01 0,0.01 0,0.01z"/>
    <path class="fil0" d="M0.2 0.14c0,0 0,0 0,0 0,0 0,0 0,0 0,0 0,0 0,0l0 0c0,0 0,0 0,0 0.01,0 0.01,0 0.01,-0.01 0,0 0,0 0,0 0,0 0,0 0,-0.01 0,0 0,0 0,0 0,0 0,0.01 0.01,0.01 0,0 0,0 0,0 0,0 0,0 0,0 0,0 0.01,0 0.01,0 0,0 0,0 0,0l0 0c0.01,0.01 0,0 0.01,0.01 0,0 0,0 0,0 0,0 0,0 0,0 0,0 0,0 0,0 0,0.01 0,0.01 0,0.01 0,0 0,0 0,0 0,0 0,0 0.01,0 0,0 0,0 0,0 0,0.01 0,0.01 0,0.01 0,0 0,0.02 0,0.02 0,0 0,0 0,0 0,0 0,0.01 0,0.01 -0.01,0 -0.01,0 -0.01,0 0,0 0,0 0,0 0,0 0,0.01 0,0.01 0,0 0,0 0,0 -0.01,0 -0.01,0 -0.01,0 0,0 0,0 0,0 0,0 0,0 0,0 0,0 0,0 0,0 0,0 0,0 0,0 0,0.01 0,0.01 0,0.01 0,0 0,0 0,0l0 0c0,0 0,0 0,0 0,0 0,0 -0.01,0l0 -0.01c0,0.01 0.01,0.01 0.01,0.01 0,0 0,0 -0.01,0.01 0,0 0,0 0,0 0,0 0,0 0,0 0,0 -0.01,0 -0.01,0 -0.01,0 -0.01,0 -0.01,0 0,0 0,0 0,0 -0.01,0 -0.01,0 -0.01,0 0,0.01 0,0.01 0,0.01 0,0 0,0 0,0 0,0 0,0 0,0 0.01,0 0,0 0.01,0l0 -0.01c0,0 0,0 0,0 0,0 0,0 0,0 0,0 0,0 0,0.01 0,0 0,0 0,0 0,0 0,0 0,0l0 -0.01c0,0 0,0.01 0,0l0 0c0,0 0.01,0 0.01,0 0,0 0,0 0,0 0,0 0.01,0 0.01,0 0,0 0,0 0,0 0.01,0 0.01,0 0.01,0 0,-0.01 0,-0.01 0,-0.01l0 0c0,0 0,0 0,0 0,0 0,0 0,0 0,0 0,0 0,0l0 0c0,0 0,0 0,0 0,0 0,0 0,0 0,0 0,0.01 0,0.01 0,0 0,0 0.01,0 0,0 0,-0.01 0,-0.01 0,0 0.01,0 0.01,0 0,0 0,0 0,0 0,0 0,0 0.01,0 0,0 0,0 0.01,0 0,0 0,0 0,0 0,0 0,0 0,0 0,0 0,0 0,0 0,0 0.01,0 0.01,0 0,0 0,0 -0.01,0 0,0 0,0 0,0 0,0 0,0 -0.01,0 0,0 0,0 -0.01,0 0,0.01 0,0.01 0,0.01 0,0 0,0 0,0 0,0 0,0 -0.01,0 0,0 0,0 0,0 0,0 0,0 0,0 0,0 0,0 0,0 0,0.01 0,0.02 0,0.02 0,0 0,0 0,0 0,0 0,0 0,0 0,0 0,0 0,0 0,0.01 0,0.01 0,0.01 0,0 0,0.01 0,0.01 -0.01,0 -0.01,0 -0.01,0 0,0 0,0 0,0.01 0,0 0,0 0,0 0,0 0,0 0,0 0,0 0,0 0,0 0,0 0,0 0,0 0,0 0,0 -0.01,0 0,0 0,0 0,0 0,0.01 0,0.01 0,0.01 0,0 0,0 0,0 0,0 0,0 0,0 0,0 0,0 0,0l0 -0.01c0.01,0 0.01,0 0.01,0 0,0 0,0 0,0 0,0 0,0 0,0l0 0c0,0 0,0 0,0 0,0 0,0 0,-0.01 0,0 0,0 0,0 0.01,0 0.01,0 0.01,0 0,0 0,0 0,0 0,-0.01 0,0 0,-0.01 0,0 0,0 0,0 0,0 0,-0.01 0,-0.01 0,0 0,0 0,0 0,-0.01 0,-0.02 0,-0.02 0,0 0,0 0,0 0.01,0 0.01,0 0.01,0 0.01,0 0,0 0.01,0l0 0c0,-0.01 0.01,0 0.01,-0.01 0,0 0,0 0,0 0,0 0,0 0,0l0 0c0,0 0.01,0 0.01,0 0,0 0,0 0,0 0,0 -0.01,0 -0.01,0 -0.01,0 -0.01,0 -0.01,0 0,0 -0.01,0 -0.01,0 0,0 0,0 -0.01,0 0,0 0,0 -0.01,0 0,0 0,0 0,-0.01 0,0 0,0 0,0 0,0 0.01,0 0.01,0 0,0 0,0 0,0 0.01,0 0,-0.01 0.01,-0.01 0,0 0,0 0,0 0,0 0,0 0,0l0 -0.01c0,0 0,0 0,0 0,0 0,0 0,-0.01 0,0 0,0 0,0 0,0 0,-0.01 0,-0.01 0,0 0,0 0,0 0,-0.01 0,-0.01 0,-0.01 0,0 0,0 0,0 0,0 -0.01,0 -0.01,0 0,0 0,0 0,0 0,-0.01 0,-0.01 0,-0.01 0,0 0,0 0,0 0,0 0,0 0,0 0,0 0,0 0,0 0,0 0,-0.01 0,-0.01 -0.01,0 -0.01,0 -0.01,0 0,0 -0.01,0 -0.01,0 0,0 0,0 0,0 -0.01,-0.01 0,-0.01 -0.01,-0.01 0,0 0,0 0,0 0,0 0,0 0,0 0,0 0,0 0,0 0,0.01 0,0.01 0,0.01 0,0 0,0 0,0 0,0 -0.01,0 -0.01,0.01 0,0 0,0 0,0l0 0c0,0 0,0 0,0 0,0 -0.01,0 0,0 0,0 0,0 0,0l0 0z"/>
    <path class="fil0" d="M0.13 0.25c0,0 0,0 0,0 0,0 0,0 -0.01,0 0,0 -0.01,0 -0.01,0 0,0 -0.01,0 -0.01,0 0,0 0,0 0,0 0,0 -0.01,0 -0.01,-0.01 0,0 0,0 0,0 0,0 0,0 0,0 0,0 0,0 0,0 0,0 0,0 0,0 0,-0.01 0,-0.01 0,-0.01 -0.01,0 -0.01,0 -0.02,0 0,0 -0.01,0 -0.01,0 0,0 -0.01,0 -0.01,0 0,0 0,0 0,0 0,0 0,0 0,0 -0.01,0 -0.01,0 -0.01,-0.01 0,0 0,0 0,0 0,0 0,0 0,0l0 0c0,0 0,0.01 0.01,0.01 0,0 0,0 0.01,0 0,0 0,0 0,0 0.01,0 0.01,0 0.01,0 0.01,0 0.01,0 0.01,0 0.01,0 0.01,0 0.01,0.01 0,0 0,0 0,0 0,0 0,0 0,0 0,0 0,0.01 0,0.01 0.01,0 0.01,0 0.01,0 0,0 0,0 0,0 0.01,0 0.02,0 0.02,0 0.01,0 0.01,0 0.01,0 0,0 0,0 0,0 0,0 0,-0.01 0,-0.01 0,0 0,0 0,-0.01 0,0 0,0 0,0 0,-0.01 0,-0.01 0.01,-0.01 0,0 0,0 0,0 0,0 0.01,0 0.01,0 0,0 0,0 0,0.01 0,0 0,0 0,0 0,0 0,0.01 0.01,0.01l0 0c0,0.01 0,0 0,0 0,0 0.01,0 0.01,0 0,0 0,0 0,0 0,0 0,0 0,0 0.01,0 0.01,0 0.01,0 0.01,0 0.01,0 0.01,0 0,-0.01 0,0 0,-0.01 0,0 0,0 0,-0.01 0,0 0,0 0.01,0l0 0c0,0 0,0 0,0 0,0 0,0 0,0 0,0 0,0 0.01,0 0,0 0,0 0.01,0 0,0 0,0 0,0 0,-0.01 0,-0.01 0,-0.01 0,-0.01 0.01,-0.01 -0.01,-0.01 0,0 0,0 0,0 -0.01,0 0,0 0,0 0,-0.01 0,-0.01 0,-0.01 0,0 0,0 0,0 0,-0.01 0,-0.02 0,-0.03 0,0 0,0 0,0 0,0 0,0 -0.01,-0.01 0,0 0,0 0,0 0,0 0,0 0,0 0,0 0,0 0,0 0,0 0,0 0,-0.01 0,0 0,0 0,0 -0.01,0 -0.01,0 -0.01,0 0,0 0.01,0 0.01,0 0,-0.01 0.01,-0.01 0.01,-0.01 0,0 0,0 0,-0.01 0,0 0,0 0,0 0,0 0,0 0,0l0.01 0c0,0.01 0,0.01 0,0.01 0,0 0,0 0.01,0 0.01,0 0,0 0.01,0 0,0 0,0 0,0 -0.01,0 -0.01,0 -0.01,0 0,0 0,0 0,0 0,0 0,0 0,0 -0.01,0 -0.01,0 -0.01,0 0,0 0,0 0,-0.01 0,0 -0.01,0 -0.01,0 0,0 0,0 0,0 0,0 0,0 0,0.01 0,0 0,0 0,0 0,0 -0.01,0 -0.01,0 0,0 0,0 0,0 0,0.01 0,0.01 0,0.01 -0.01,0 -0.01,0 -0.01,0 0,0 0,0 0.01,0 0,0.01 0,0.01 0,0.01 0,0 0,0 0,0 0,0 0,0 0,0 0,0 0,0 0,0l0.01 0.01c0,0 0,0 0,0 0,0 0,0 0,0 0,0 0,0 0,0 0,0.01 0,0.02 0,0.02 0,0 0,0 0,0.01 0,0 0,0 0,0l0 0.01c0,0 0,0 0,0 0,0 0,0 0,0 0,0 0,0 0.01,0 0,0 0,0 0,0 0,0.01 0,0.01 0,0.01 0,0 0,0 0,0 0,0.01 0,0.01 0,0.01 -0.01,0 -0.01,0 -0.01,0 0,0 0,0 0,0l-0.01 0c0,0 0,0 0,0 -0.01,0 -0.01,0 -0.01,0 0,0.01 0,0.01 0,0.01 0,0 0,0 0,0.01 0,0 0,0 -0.01,0 0,0 0,0 0,0 0,0 0,0 0,0 0,0 -0.01,0 -0.01,0 0,0 0,0 0,0 0,0 -0.01,0 -0.01,0 0,0 0,0 0,0 0,0 0,0 0,0 0,-0.01 0,-0.01 0,-0.01 -0.01,0 -0.01,0 -0.01,-0.01 0,0 0,0 0,0 0,0 0,0 -0.01,0 0,0 0,0 0,0 -0.01,0 -0.01,0 -0.01,0.01 0,0 0,0.01 0,0.01 0,0 0,0 0,0 0,0 0,0.01 0,0.01 0,0 0,0 0,0z"/>
    <path class="fil0" d="M0.12 0.2c0,0 0,0 0,0 0,0 0,0 0,0 0.01,-0.01 0.01,-0.01 0.01,-0.01 0.01,0 0.01,0 0.01,0 0,0 0.01,0 0.01,0 0.01,0 0,0 0.01,0 0,0 0,0 0,0 0,0 0,0 0,0 0,0 0,0 0,0 0,0 0,-0.01 0,-0.01l-0.01 0.01c0,0 0,0 -0.01,0 0,0 0,0 0,0 0,0 0,0 0,0 -0.02,0 -0.01,0 -0.02,0 0,0 0,0 0,0 -0.01,0 -0.01,0 -0.01,0 0,0 0,0 0,0 0,0 0,0 0,0.01 0,0 0,0 0,0 0,0 0.01,0 0.01,0z"/>
    <path class="fil0" d="M0.11 0.18c0,0 0,0 0,-0.01 0,0 0,0 0,0 0,0 0,0 0,0 -0.01,-0.01 -0.01,-0.01 -0.01,-0.01 0,0 0,0 0,0l0 0c0,0 0,0 0,0 0,0 0,0 0,0 0,0 0,0 0,-0.01 -0.01,0 -0.01,0 -0.01,0 0,0 0,0 0,0 0,0 0,0 0,0 -0.01,-0.01 -0.01,-0.01 -0.01,-0.01 0,0 0,0 0,0 0,0 0,0 0,0 0,0 0,0 0,0 -0.01,-0.01 -0.01,-0.01 -0.01,-0.01 0,0 0,0 0,0 0,0 0,-0.01 0,-0.01 0,0 0,0 0,0 -0.01,-0.01 -0.01,-0.03 0,-0.03 0,0 0,-0.01 0,-0.01l0 0c0,0 0,0 0,0l0 0c0,0 0,0 0,0 0,0 0,0 0,0 0,0 0,-0.01 0,-0.01 0,0 0,0 0.01,0 0,0 0,0 0,0 0,0 0,0 0,0l0 -0.01c0,0 0,0 0,0 0,0 0,0 0,0 0.01,0 0.01,0 0.01,0 0,0 0,0 0,-0.01 0,0 0,0 0.01,0 0,0 0,0 0,0 0,0 0,0 0,0 0,0 0,0 0.01,0 0,0 0.02,0 0.02,0 0,0 0,0 0,0l0.01 0c0,0 0,0 0,0 0,0.01 0,0 0.01,0.01 0,0 0,0 0,0 0,0 0,0 0,0 0,0 0,0 0,0 0,0 0,0 0,0l0 0c0,0 0,0 0,0 0,0 0,0 0,0 0,0 0,0 0,0l0.01 0c0,0 0,0 0,0 0,0 0,0 0,0 0,0 0,0 0,0 0,0 0,0 0,0 0,0.01 0,0.01 0,0.01 0,0 0,0 0,0 0,0 0,0 0,0 0,0 0,0 0,0 0,0 0,0 0,0 0.01,0.01 0.01,0 0.01,0.01 0,0 0,0 0,0 0,0 0,0 0,0 0,0 0,0 0,0 0,0 0,0 0,0.01 0,0 0,0 0,0l0 0c0,0 0,0 0,0 0,0 0,0 0,0l0 0c0,0 0,0 0,0.01 0,0 0,0 0,0 0,0.01 0,0.01 0,0.01 0,0 0,0.01 0,0.01 0,0 0,0 0,0 0,0 0,0 0,0.01 0,0 0,0 0,0 0,0 0,0 0,0 -0.01,0 -0.01,0 -0.01,0.01l0 0c0,0 0,0 0,0 0,0 0,0 0,0 0,0 0,0 0,0l0 0c0,0 0,0 0,0 0,0.01 0,0.01 0,0.01 0,0 0,0 0,0 -0.01,0 -0.01,0 -0.01,0.01 0,0 0,0 0,0 0,0.01 0,0.01 0.01,0.01l0 0c0,0 0,0 -0.01,0l0 0c0,-0.01 0,-0.01 0,-0.01 0.01,0 0.01,0 0.01,-0.01 0,0 0,0 0,0 0,0 0,0 0,-0.01 0,0 0,0 0,0 0,0 0,0 0,0 0.01,-0.01 0.01,-0.01 0.01,-0.01 0,0 0,0 0,-0.01 0,0 0,0 0,0 0,0 0,-0.01 0,-0.01 0,0 0,0 0,0 0,-0.01 0.01,-0.01 0,-0.02 0,0 0,0 0,0 0,-0.01 0,-0.01 0,-0.01 0,0 0,0 0,0 0,0 0,0 0,0 0,0 0,-0.01 0,-0.01 -0.01,0 -0.01,0 -0.01,0 0,0 0,0 0,0 0,-0.01 0,0 0,-0.01 0,0 0,0 0,0 0,0 -0.01,0 -0.01,0 0,0 0,0 0,0 0,0 0,0 0,0 0,0 0,-0.01 -0.01,-0.01 0,0 0,0 0,0 0,0 0,0 -0.01,0 0,0 -0.02,0 -0.03,0 0,0 0,0 0,0 0,0 -0.01,0 -0.01,0 0,0 0,0 0,0 0,0 0,0.01 0,0.01 0,0 0,0 0,0 -0.01,0 -0.01,0 -0.01,0 0,0 0,0 0,0l0 0.01c-0.01,0 -0.01,0 -0.01,0 0,0 0,0 0,0 0,0.01 0,0 0,0.01 0,0 0,0 0,0 0,0 0,0 0,0.01l0 0c-0.01,0 -0.01,0 -0.01,0 0,0.01 0,0.02 0,0.03 0.01,0 0.01,0 0.01,0 0,0 0,0.01 0,0.01 0,0 0,0 0,0 0,0 0,0 0,0 0,0.01 0,0.01 0.01,0.01l0 0c0,0 0,0 0,0 0,0 0,0 0,0 0.01,0.01 0,0.01 0.01,0.01l0 0c0,0 0,0 0,0 0.01,0.01 0.01,0.01 0.01,0.01 0,0 0,0 0,0 0,0 0,0 0,0 0,0 0,0 0,0l0.01 0.01c0,0 0,0 0,0.01 0,0 0,0 0,0 0,0 0,0 0,0z"/>
    <path class="fil0" d="M0.08 0.01c0,0 0,0 0,0l0 -0.01c0.01,0 0.01,0 0.01,0 0.01,0 0.01,0 0.01,0 0,0 0,0.01 0,0.01 0,0 0.01,0.01 0.01,0.01 0,0 0,0.01 0,0.01 0,0 0,0.01 0,0.02 0,0 0,0 -0.01,-0.01l0 0c0,0 0,-0.01 0,-0.01 0,-0.01 -0.01,0 -0.01,0 0,0 0,0 0,0 0,0 0,0 -0.01,0 0,0 0,0 0,0 0,0 0,0 0,0 0,0 0,0.01 -0.01,0.01 -0.01,-0.01 -0.01,-0.01 -0.01,-0.01 0,-0.01 0,-0.01 0,-0.01 0,0 0,0 0,0 0,-0.01 0,-0.01 0,-0.01 0,0 0.01,0 0.01,0 0,0 0,0 0,0 0.01,0 0.01,0 0.01,0zm0.01 -0.01c0,0 0,0 0,0 0,0 0,0 0,0 0,0 -0.01,0 -0.01,0 0,0 0,0 0,0 0,0.01 0,0.01 0,0.01 0,0 0,0 0,0 0,0 -0.01,0 -0.01,0 0,0 0,0 0,0 0,0 -0.01,0 -0.01,0 0,0 0,0 0,0l0 0.01c0,0 0,0 0,0 0,0 0,0 0,0 0.01,0.01 0,0.01 0.01,0.02 0.01,0 0.01,0 0.01,-0.01 0,0 0,0 0.01,0 0,0 0,0 0,0 0,0 0,0 0,0 0,0 0,0 0.01,0 0,0 0,0 0,0 0,0 0,0 0,0 0,0 0,0 0,0l0 0c0,0 0,0 0,0 0,0 0,0 0,0.01 0,0 0,0 0,0 0,0 0,0 0,0.01 0.01,0 0.01,0 0.01,0 0,-0.01 0,-0.01 0,-0.01 0,0 0,0 0,0 0,0 0,-0.01 0,-0.01 0,0 0,0 0,-0.01 0,0 0,0 0,0l0 -0.01c-0.01,0 0,0 -0.01,-0.01 0,0 0,0 0,0 0,0 -0.01,0 -0.01,0z"/>
    <path class="fil0" d="M0.1 0.03l0 0 0 0c0,0 0,0 0,-0.01 0,0 0,0 -0.01,0 0,0.01 0,0 0,0.01 0,0 0,0 0,0 0,0 0,0 0,0 0,0 -0.01,0 -0.01,0 0,0 0,0 0,0l0 0c0,0 -0.01,0 -0.01,0 0,0 0,0 0,0 0,0 0,0 0,0 -0.01,0 0,-0.01 -0.01,-0.01 0,0 0,0 0,0 0,-0.01 0,-0.01 0,-0.01 0.01,0 0.01,0 0.01,0 0.01,0 0.01,0 0.01,0 0,0 0,0 0,0 0,0 0,0 0.01,-0.01 0,0 0,0 0,0 0.01,0 0.01,0 0.01,0 0,0 0,0 0,0.01 0,0 0,0 0,0 0,0 0,0.01 0.01,0.01 0,0 0,0.01 0,0.01 0,0 0,0.01 0,0.01 0,0 0,0 0,0 0,0 0,0 0,0 0,0 0,0 0,0l0 0c0,0 0,0 0,0 0,0 0,0 0,0 0,0 0,0 0,0 -0.01,0 -0.01,0 -0.01,0 0,0 0,0 0,0 0,0 0,0 0,-0.01zm-0.02 -0.02c0,0 0,0 0,0 0,0 0,0 0,0 0,0 0,0 0,0 0,0 0,0 -0.01,0 0,0 -0.01,0 -0.01,0 0,0 0,0.01 0,0.01 0,0 0,0 0,0.01 0,0 0,0 0.01,0 0,0 0,0 0.01,0 0,0 0,0 0,0 0,0 0,0 0,0 0,0 0.01,0 0.01,0 0,0 0,0 0,0 0,0 0,0 0,0 0,0 0.01,-0.01 0.01,-0.01 0,0 0,0.01 0,0.01 0,0 0,0 0,0 0,0.01 0,0.01 0,0.01 0,0 0,0 0.01,0 0,0 0,0 0,0 0,0 0,0 0,0 0,-0.01 0,-0.01 0,-0.01 0,0 0,0 0,0 0,0 0,-0.01 0,-0.01 -0.01,0 -0.01,-0.01 -0.01,-0.01 0,0 0,0 0,0 0,0 0,-0.01 0,-0.01 0,0 0,0 0,0 0,0 0,0 -0.01,0 0,0 0,0 -0.01,0l0 0.01c0,0 0,0 0,0z"/>
    <path class="fil0" d="M0.08 0.03l0 0c0,0 0,0 0,0 0,0 0.01,0 0.01,0 0,0 0,0 0,0 0,0 0,0 0,0 0,-0.01 0,0 0,-0.01 0.01,0 0.01,0 0.01,0 0,0.01 0,0.01 0,0.01l0 0c0,0 0,0 0,0 0,-0.01 0,-0.01 0,-0.01 0,0 0,0 0,0 -0.01,0 0,0 -0.01,0 0,0.01 0,0 0,0.01 0,0 0,0 0,0 -0.01,0 -0.01,0 -0.01,0 0,0 0,0 0,0 0,0 0,0 0,0 0,0 0,0 0,0 0,0 -0.01,0 -0.01,0 0,0 0,0 0,0 0,0 0,0 0,0 0,0 0,0 0,0 -0.01,0 0,0 0,-0.01 0,0 -0.01,0 -0.01,0 0,0 0,0 0,0 0,-0.01 0,-0.01 0.01,-0.01 0,0 0.01,0 0.01,0 0,0 0,0 0,0 0,0 0,0 0,0 0,0 0,0 0,0 0,0 0,0 0,0 0.01,0 0.01,0 0.01,-0.01 0,0 0,0 0,0 0,0 0,0 0,0 0,0 0.01,0 0.01,0 0,0.01 0,0.01 0,0.01 0,0 0,0 0,0 0,0 0,0 0,0 0,0 0,0 0,0 0,0.01 0,0.01 0,0.01 0.01,0 0.01,0 0.01,0.01 0,0 0,0 0,0.01l0 0c0,0 0,0 0,0 0,0 0,0 0,0 -0.01,0 -0.01,0 -0.01,0l0 0c0,-0.01 0,-0.01 0,-0.01 0,0.01 0,0.01 0,0.01 0,0 0,0 0,0 0,0 0,0 0.01,0 0,0 0,0 0,0 0,0 0,0 0,0 0,0 0,0 0,0l0 0c0,0 0,0 0,0 0,0 0,0 0,0 0,0 0,0 0,0 0,0 0,-0.01 0,-0.01 0,0 0,-0.01 0,-0.01 -0.01,0 -0.01,-0.01 -0.01,-0.01 0,0 0,0 0,0 0,-0.01 0,-0.01 0,-0.01 0,0 0,0 -0.01,0 0,0 0,0 0,0 -0.01,0.01 -0.01,0.01 -0.01,0.01 0,0 0,0 0,0 0,0 0,0 -0.01,0 0,0 0,0 -0.01,0 0,0 0,0 0,0.01 0,0 0,0 0,0 0.01,0 0,0.01 0.01,0.01 0,0 0,0 0,0 0,0 0,0 0,0 0,0 0.01,0 0.01,0z"/>
    <path class="fil0" d="M0.12 0.2c0,0 -0.01,0 -0.01,0 0,0 0,0 0,0 0,-0.01 0,-0.01 0,-0.01 0,0 0,0 0,0 0,0 0,0 0.01,0 0,0 0,0 0,0 0.01,0 0,0 0.02,0 0,0 0,0 0,0 0,0 0,0 0,0 0.01,0 0.01,0 0.01,0l0.01 -0.01c0,0 0,0.01 0,0.01 0,0 0,0 0,0 0,0 0,0 0,0 0,0 0,0 0,0 -0.01,0 0,0 -0.01,0 0,0 -0.01,0 -0.01,0 0,0 0,0 -0.01,0 0,0 0,0 -0.01,0.01 0,0 0,0 0,0 0,0 0,0 0,0zm0.03 -0.02c0,0 0,0 0,0 0,0 0,0 0,0 0,0 0,0 0,0 0,0 -0.01,0 -0.01,0.01 0,0 0,0 0,0l-0.01 0c0,0 0,0 0,0 -0.01,0 -0.01,0 -0.01,0 0,0 0,0 0,0 0,0 -0.01,0 -0.01,0 0,0 0,0 0,0 0,0 0,0.01 0,0.01 0,0 0,0 0,0 0,0 0,0 0.01,0 0,0 0,0 0,0 0.01,0 0.01,0 0.01,0 0,0 0.01,0 0.01,-0.01 0,0 0,0 0,0l0 0c0,0 0,0 0,0 0.01,0 0.02,0 0.02,0 0,0 0,0 0,0 0,0 0,0 0,0 0,0 0,0 0,-0.01 -0.01,0 0,0 -0.01,0z"/>
    <path class="fil0" d="M0.1 0.07c0,0 0,0 0,0 0,0 0,0 0,0 0,0 0,0 -0.01,0 0,0.01 0,0.01 0,0.01 0,0 0,0 0,0 0,0 0,0 0,0 0,0 0,0 0,0 -0.01,0.01 0,0 -0.01,0.01 0,0 0,0 0,0 0,0 0,0 0,0.01 0,0 0,0 0,0 0,0 0,0 0,0 0,0 0,0 0,0 0,0 -0.01,0 -0.01,0 0,0 0,0 0,0 0,0 0,-0.01 0,-0.01 0,0 0,0 0.01,0 0,0 0,0 0,-0.01 0,0 0,0 0,0 0,0 0,0 0,0 0,0 0,0 0,0 0,-0.01 0,-0.01 0,-0.01 0.01,0 0.01,0 0.01,0 0,0 0,0 0,0 0,0 0,0 0,0 0.01,-0.01 0.01,-0.01 0.01,-0.01 0,0.01 0,0.01 0,0.01 0,0 0,0 0,0zm-0.02 0.01c0,0 0,0 0,0 0,0 0,0 0,0 -0.01,0.01 0,0.01 -0.01,0.01 0,0 0,0 0,0 0,0 0,0.01 0,0.01 0,0 0,0 0,0 0.01,0.01 0.01,0 0.01,0 0,0 0,0 0,0 0,-0.01 0,-0.01 0,-0.01l0 0c0.01,0 0,0 0.01,0 0,-0.01 0,0 0,-0.01 0,0 0,0 0,0 0,0 0,0 0,0 0,0 0,0 0,0 0,-0.01 0.01,0 0.01,-0.01 0,0 0,0 0,0 0,0 0,0 0,0 0,0 0,0 0,0 0,0 0,0 0,-0.01 0,0 0,0 -0.01,0 0,0 0,0.01 0,0.01 0,0 0,0 0,0 0,0 0,0 0,0 0,0 0,0 0,0 -0.01,0 -0.01,0 -0.01,0 0,0 0,0 0,0 0,0 0,0.01 0,0.01 0,0 0,0 0,0z"/>
    <path class="fil0" d="M0.08 0.03c0,0 0,0 0,0 -0.01,0 -0.01,0 -0.01,0 -0.01,0 -0.01,0 -0.01,0 0,-0.01 0,-0.01 0,-0.01 0,0 0,-0.01 0,-0.01 0,0 0.01,0 0.01,0 0.01,0 0.01,0 0.01,0 0,0 0,0 0,0 0,0 0,0 0,0 0,0 0,0 0,0 0,0 0,0 -0.01,0 0,0 0,0 0,0 0,0 -0.01,0 -0.01,0 0,0 0,0 0,0.01 0,0 0,0 0,0 0,0 0,0 0,0.01 0,0 0,0 0.01,0.01 0.01,0 0.01,-0.01 0.01,-0.01 0,0 0,0 0,0 0,0 0,0 0,0 0.01,0 0.01,0 0.01,0 0,0 0,0 0,0 0,0 0.01,-0.01 0.01,0 0,0 0,0.01 0,0.01l0 0c0.01,0.01 0.01,0.01 0.01,0.01 0,-0.01 0,-0.02 0,-0.02 0,0 0,-0.01 0,-0.01 0,0 -0.01,-0.01 -0.01,-0.01 0,0 0,-0.01 0,-0.01 0,0 0,0 0,0 0,0 0,0.01 0,0.01 0,0 0,0 0,0 0,0 0,0.01 0.01,0.01 0,0 0,0.01 0,0.01 0,0 0,0 0,0 0,0 0,0 0,0.01 0,0 0,0 0,0 0,0 0,0 0,0 -0.01,0 -0.01,0 -0.01,0 0,0 0,0 0,-0.01 0,0 0,0 0,0 0,0 0,-0.01 0,-0.01 0,0 -0.01,0.01 -0.01,0.01 0,0 0,0 0,0 0,0 0,0 0,0 0,0 -0.01,0 -0.01,0 0,0 0,0 0,0z"/>
    <path class="fil0" d="M0.08 0.08c0,0 0,0 0,0 0,0 0,-0.01 0,-0.01 0,0 0,0 0,0 0,0 0,0 0.01,0 0,0 0,0 0,0 0,0 0,0 0,0 0,0 0,0 0,0 0,0 0,-0.01 0,-0.01 0.01,0 0.01,0 0.01,0 0,0.01 0,0.01 0,0.01 0,0 0,0 0,0 0,0 0,0 0,0 0,0 0,0 0,0 0,0.01 -0.01,0 -0.01,0.01 0,0 0,0 0,0 0,0 0,0 0,0 0,0 0,0 0,0 0,0.01 0,0 0,0.01 -0.01,0 0,0 -0.01,0l0 0c0,0 0,0 0,0.01 0,0 0,0 0,0 0,0 0,0.01 -0.01,0 0,0 0,0 0,0 0,0 0,-0.01 0,-0.01 0,0 0,0 0,0 0.01,0 0,0 0.01,-0.01 0,0 0,0 0,0 0,0 0,0 0,0zm0 0l0 0c0,0 0,0 0,0 0,0 0,0 0,0 0,0 0,0 0,0 -0.01,0 0,0.01 -0.01,0.01l0 0c0,0 0,0 0,0 0,0 0,0 0,0 0,0 0,0 0,0.01 0,0 0,0 0,0 0,0.01 0,0.01 0,0.01 0,0 0.01,0 0.01,0 0,0 0,-0.01 0,-0.01 0,0 0,0 0,0 0,0 0,0 0,-0.01 0.01,0 0.01,0 0.01,0 0,0 0,-0.01 0,-0.01 0,0 0,0 0,0 0,0 0,0 0,0 0,0 0,0 0,0l0 0c0,0 0.01,0 0.01,0 0,0 0,0 0,-0.01 0,0 0,0 0,0 0,0 0,0 0,0 0,0 0,0 0,0 0,-0.01 0,-0.01 0,-0.01 0,0 -0.01,0 -0.01,0 0,0 0,0 0,0 0,0 0,0 0,0.01 0,0 0,0 0,0 0,0 0,0 0,0 -0.01,0 -0.01,0 -0.01,0 0,0 0,0 0,0.01z"/>
    <path class="fil0" d="M0.12 0.21c0.01,0 0.01,0.01 0.01,0.01 0,0 0,0 0,0 0,0 0,0 0,0 0,0 0.01,0 0.02,0 0,0 0,0 0,0 0,0 0,-0.01 0,-0.01 0,0 0,0 0,0 0,0 0,0 0,0 0,0 0,0 0.01,0 0,0 0,0 0,-0.01 0,0 0,0 0,0 0,0 0,0 0,0l-0.01 0.01c0,0 0,0 0,0 0,0 0,0 0,0 0,0 0,0 0,0 0,0 0,0 0,0 0,0 0,0 0,0 0,0.01 0,0.01 0,0.01 -0.01,0 0,0 -0.01,0 0,0 -0.01,0 -0.01,0 0,0 0,0 0,-0.01 0,0 0,0 0,0 -0.01,0 -0.01,0 -0.01,0 0,0 0,0 -0.01,0 0,0 0,0 0,0l0 0c0,0 0,0 0,0 0,0 0,0 0,0l0.01 -0.01c0,0 0,0 0,0 0,0 0.01,0 0.01,0 0.01,0 0.01,0 0.02,0 0,0 0,0 0,0 0,0 0,0 0.01,0 0,0 0,0 0,0 0,0 0,0 0,0 -0.01,0 -0.01,0 -0.01,0 0,0 -0.01,0 -0.01,0 -0.01,0 -0.01,0 -0.01,0 0,0 -0.01,0 -0.01,0 0,0 0,0 0,0 0,0 -0.01,0 -0.01,0 0,0 0,0.01 0,0.01 0,0 0.01,0 0.01,0 0,0 0,0 0,0 0,0 0,0 0,0 0,0 0,0 0,0z"/>
    <path class="fil0" d="M0.07 0.1c0,0 0,-0.01 0.01,-0.01 0,0 0,0 0,0 0,0 0,0 0,-0.01l0 0c0,0 0,0 0,0 0,0 0,0 0,-0.01 0.01,0 0.01,0 0.01,0 0,0 0,0 0,0 0,0 0,0 0,0 0,0 0,0 0,0 0,0 0,0 0.01,0 0,0 0,0 0,0 0,0 0,0 0,0 0,0 0,0 0,0 0,0 0,0 -0.01,0 0,0 0,0 0,0.01 0,0 0,0 0,0 0,0 0,0 0,0 0,0 0,0 0,0 0,0 0,0 -0.01,0 0,0 0,0.01 0,0.01 0,0 0,0 0,0l0 0.01c0,0 0,0 0,0 0,0 0,0 -0.01,0zm0.03 -0.03c0,0 0,0 0,0 0,0 0,0 0,-0.01 0,0 0,0 -0.01,0.01 0,0 0,0 0,0 0,0 0,0 0,0 0,0 0,0 -0.01,0 0,0 0,0 0,0.01 0,0 0,0 0,0 0,0 0,0 0,0 0,0 0,0 0,0 0,0.01 0,0.01 0,0.01 -0.01,0 -0.01,0 -0.01,0 0,0 0,0.01 0,0.01 0,0 0,0 0,0 0,0 0.01,0 0.01,0 0,0 0,0 0,0 0,0 0,0 0,0 0,0 0,0 0,0 0,-0.01 0,-0.01 0,-0.01 0,0 0,0 0,0 0.01,-0.01 0,0 0.01,-0.01 0,0 0,0 0,0 0,0 0,0 0,0 0,0 0,0 0,0 0,0 0,0 0,-0.01 0.01,0 0.01,0 0.01,0 0,0 0,0 0,0 0,0 0,0 0,0z"/>
    <path class="fil0" d="M0.14 0.24c0,-0.01 0,-0.01 0,-0.01 0,0 0,0 0.01,0 0,0 0,0 0,0 0,0 0,0 0,0.01 0,0.01 0,0.01 -0.01,0.01 0,0 0,0 0,0 0,0 0,0 0,-0.01 0,0 0,0 0,0zm0.01 -0.01c0,0 -0.01,0 -0.01,0 0,0 0,0 0,0 0,0 0,0 0,0 0,0 0,0.01 0,0.01 0,0.01 0,0 0,0.01 0,0 0,0 0,0 0,0 0,0 0,0 0,0 0,0 0,0 0.01,0 0.01,0 0.01,0 0,0 0,0 0,-0.01 0,0 0,0 0,0 0,0 0,0 0,0 0,-0.01 0,-0.01 0,-0.01l0 0z"/>
    <path class="fil0" d="M0.14 0.24c0,0 0,0 0,-0.01 0,0 0,0 0,0 0,0 0,0 0,0 0.01,0 0.01,0 0.01,0.01 0,0 0,0 0,0 0,0.01 0,0.01 0,0.01 0,0 -0.01,0 -0.01,0 0,0 0,-0.01 0,-0.01 0,0 0,0 0,0zm0 0c0,0.01 0,0.01 0,0.01 0.01,0 0.01,0 0.01,-0.01 0,0 0,0 0,0 0,0 0,0 0,0 0,-0.01 0,-0.01 -0.01,-0.01 0,0 0,0 0,0 0,0 0,0 0,0l0 0.01z"/>
    <path class="fil0" d="M0.14 0.23c0,0 0,0 0,0 0,0 0,0 0,0 0.01,0 0.01,0 0.01,0.01 0,0 0,0 0,0 0,0 0,0 0,0 0,0.01 0,0.01 -0.01,0.01 0,0 0,0 0,-0.01l0 -0.01zm0 0.01c0,0 0,0 0,0 0,0.01 0,0.01 0,0.01 0,0 0,0 0,0 0.01,0 0.01,0 0.01,-0.01 0,-0.01 0,-0.01 0,-0.01 0,0 0,0 0,0 -0.01,0 -0.01,0 -0.01,0 0,0 0,0 0,0.01z"/>
    <path class="fil0" d="M0.14 0.24c0,-0.01 0,-0.01 0,-0.01l0 0c0,0 0,0 0,0 0,0 0,0 0,0 0,0 0,0 0,0 0.01,0 0.01,0 0.01,0.01l0 0c0,0 0,0 0,0.01 0,0 -0.01,0 -0.01,0 0,-0.01 0,0 0,-0.01 0,0 0,0 0,0zm0 0c0,0 0,0 0,0 0,0 0,0.01 0,0.01 0,0 0.01,0 0.01,0 0,0 0,0 0,-0.01 0,0 0,0 0,0 0,-0.01 0,-0.01 -0.01,-0.01 0,0 0,0 0,0 0,0 0,0 0,0 0,0.01 0,0.01 0,0.01z"/>
    <path class="fil0" d="M0.05 0.27c0,0 0,0 0,0 0,0 0,0 0,0 0,0 0,0 0,0 0,0 0,0 0,0.01 0,0 0,0 0,0 0.01,0 0.01,0 0.01,0 0,0 0,0 0,0 0,0 0,0 -0.01,0 0,0 0,0 0,-0.01 0,0 0,0 0,0l0 0c0,0 0,0 0,0 0,0 0,0 0,0 0,0 0,0 0,0 0,0 0,0 0,0z"/>
    <path class="fil0" d="M0.14 0.19c-0.01,0 -0.01,-0.01 -0.01,-0.01 0,0 -0.01,0 -0.01,0.01 0,0 0,0 0,0l0 0c0,0 0,0 0,0 0,0 0.01,0 0.02,0z"/>
    <path class="fil0" d="M0.14 0.18c0,0 0,0 0,0 0,0 0.01,0 0.01,0 0,0 -0.01,0 -0.01,0l0 0z"/>
   </g>
   <path class="fil1" d="M0.65 0.16l0.02 0 0 -0.09 0 0 0 -0.02 0.13 0 0 0.02 -0.07 0 0 0.09 0.07 0 0 0.02 -0.07 0 0 0.08 -0.06 0 0 -0.08 -0.02 0 0 -0.02zm-0.06 -0.11l0 0 -0.05 0 0 0 0 0 -0.02 0.11 -0.03 0 0 0.02 0.02 0 -0.02 0.08 0.05 0 0.02 -0.08 0.01 0 0.02 0.08 0.05 0 -0.05 -0.21 0 0zm0.65 0.02l0 0.09 0.07 0 0 0.02 -0.07 0 0 0.05 0.07 0 0 0.03 -0.07 0 -0.05 0 0 0 0 -0.03 0 0 0 -0.05 -0.03 0 0 -0.02 0.03 0 0 -0.09 0 0 0 -0.02 0.12 0 0 0.02 -0.07 0zm-0.13 0l0 0.19 -0.05 0 0 -0.19 -0.04 0 0 -0.02 0.13 0 0 0.02 -0.04 0zm-0.14 0l0 0.19 -0.05 0 0 -0.19 -0.04 0 0 -0.02 0.13 0 0 0.02 -0.04 0zm-0.16 -0.02l0.05 0 0 0.21 -0.05 0 0 -0.21zm-0.45 0l0.05 0 0 0.18 0.07 0 0 0.03 -0.07 0 -0.05 0 0 0 0 -0.21z"/>
  </g>
 </g>
</svg>
