<svg width="50" height="46" viewBox="0 0 50 46" fill="none" xmlns="http://www.w3.org/2000/svg">
<path d="M33.3438 23.3748C33.3438 21.3036 32.549 19.5352 30.9594 18.0698C29.3698 16.6042 27.4516 15.8715 25.2049 15.8715C22.9582 15.8715 21.04 16.6042 19.4505 18.0698C17.8608 19.5352 17.0659 21.3036 17.0659 23.3748C17.0659 25.446 17.8608 27.2144 19.4505 28.6798C21.04 30.1454 22.9582 30.878 25.2049 30.878C27.4516 30.878 29.3698 30.1454 30.9594 28.6798C32.549 27.2144 33.3438 25.446 33.3438 23.3748ZM37.7312 23.3748C37.7312 26.5793 36.5125 29.3051 34.075 31.5522C31.6376 33.7992 28.6809 34.9228 25.2049 34.9228C21.7289 34.9228 18.7722 33.7992 16.3348 31.5522C13.8973 29.3051 12.6785 26.5793 12.6785 23.3748C12.6785 20.1703 13.8973 17.4445 16.3348 15.1974C18.7722 12.9503 21.7289 11.8268 25.2049 11.8268C28.6809 11.8268 31.6376 12.9503 34.075 15.1974C36.5125 17.4445 37.7312 20.1703 37.7312 23.3748ZM41.1648 11.3579C41.1648 12.1004 40.8787 12.7354 40.3064 13.263C39.7341 13.7905 39.0454 14.0544 38.2399 14.0544C37.4345 14.0544 36.7456 13.7905 36.1734 13.263C35.6012 12.7354 35.315 12.1004 35.315 11.3579C35.315 10.6153 35.6012 9.98033 36.1734 9.45275C36.7456 8.92518 37.4345 8.6614 38.2399 8.6614C39.0454 8.6614 39.7341 8.92518 40.3064 9.45275C40.8787 9.98033 41.1648 10.6153 41.1648 11.3579ZM25.2049 4.90977C25.0565 4.90977 24.2458 4.90488 22.7727 4.89512C21.2997 4.88535 20.1816 4.88535 19.4186 4.89512C18.6556 4.90488 17.633 4.93419 16.3506 4.98304C15.0683 5.0319 13.9768 5.1296 13.076 5.27614C12.1752 5.42269 11.4175 5.60343 10.8028 5.81837C9.74304 6.20917 8.81045 6.77581 8.00504 7.51832C7.19962 8.26083 6.58496 9.12058 6.16106 10.0976C5.92791 10.6642 5.73185 11.3628 5.5729 12.1932C5.41393 13.0236 5.30795 14.03 5.25496 15.2121C5.20198 16.3942 5.17018 17.337 5.15959 18.0405C5.14899 18.7439 5.14899 19.7746 5.15959 21.1326C5.17018 22.4906 5.17549 23.2381 5.17549 23.3748C5.17549 23.5115 5.17018 24.259 5.15959 25.617C5.14899 26.975 5.14899 28.0057 5.15959 28.7091C5.17018 29.4126 5.20198 30.3553 5.25496 31.5375C5.30795 32.7196 5.41393 33.726 5.5729 34.5564C5.73185 35.3868 5.92791 36.0854 6.16106 36.652C6.58496 37.629 7.19962 38.4888 8.00504 39.2312C8.81045 39.9738 9.74304 40.5404 10.8028 40.9313C11.4175 41.1461 12.1752 41.3269 13.076 41.4735C13.9768 41.62 15.0683 41.7177 16.3506 41.7666C17.633 41.8154 18.6556 41.8447 19.4186 41.8545C20.1816 41.8642 21.2997 41.8642 22.7727 41.8545C24.2458 41.8447 25.0565 41.8398 25.2049 41.8398C25.3533 41.8398 26.164 41.8447 27.6371 41.8545C29.1101 41.8642 30.2281 41.8642 30.9912 41.8545C31.7542 41.8447 32.7769 41.8154 34.0591 41.7666C35.3415 41.7177 36.433 41.62 37.3338 41.4735C38.2346 41.3269 38.9923 41.1461 39.607 40.9313C40.6668 40.5404 41.5994 39.9738 42.4048 39.2312C43.2102 38.4888 43.8248 37.629 44.2487 36.652C44.4819 36.0854 44.6779 35.3868 44.8369 34.5564C44.9959 33.726 45.1019 32.7196 45.1548 31.5375C45.2078 30.3553 45.2396 29.4126 45.2502 28.7091C45.2609 28.0057 45.2609 26.975 45.2502 25.617C45.2396 24.259 45.2344 23.5115 45.2344 23.3748C45.2344 23.2381 45.2396 22.4906 45.2502 21.1326C45.2609 19.7746 45.2609 18.7439 45.2502 18.0405C45.2396 17.337 45.2078 16.3942 45.1548 15.2121C45.1019 14.03 44.9959 13.0236 44.8369 12.1932C44.6779 11.3628 44.4819 10.6642 44.2487 10.0976C43.8248 9.12058 43.2102 8.26083 42.4048 7.51832C41.5994 6.77581 40.6668 6.20917 39.607 5.81837C38.9923 5.60343 38.2346 5.42269 37.3338 5.27614C36.433 5.1296 35.3415 5.0319 34.0591 4.98304C32.7769 4.93419 31.7542 4.90488 30.9912 4.89512C30.2281 4.88535 29.1101 4.88535 27.6371 4.89512C26.164 4.90488 25.3533 4.90977 25.2049 4.90977ZM49.6218 23.3748C49.6218 27.8494 49.5687 30.9464 49.4628 32.6659C49.2508 36.7302 47.9367 39.8761 45.5205 42.1037C43.1043 44.3312 39.6918 45.5426 35.2832 45.738C33.418 45.8357 30.0586 45.8845 25.2049 45.8845C20.3513 45.8845 16.9918 45.8357 15.1266 45.738C10.7181 45.5426 7.30559 44.3312 4.88935 42.1037C2.4731 39.8761 1.159 36.7302 0.94705 32.6659C0.841073 30.9464 0.788086 27.8494 0.788086 23.3748C0.788086 18.9002 0.841073 15.8032 0.94705 14.0837C1.159 10.0194 2.4731 6.87351 4.88935 4.64599C7.30559 2.41846 10.7181 1.207 15.1266 1.0116C16.9918 0.913901 20.3513 0.865051 25.2049 0.865051C30.0586 0.865051 33.418 0.913901 35.2832 1.0116C39.6918 1.207 43.1043 2.41846 45.5205 4.64599C47.9367 6.87351 49.2508 10.0194 49.4628 14.0837C49.5687 15.8032 49.6218 18.9002 49.6218 23.3748Z" fill="white"/>
</svg>
