<?xml version="1.0" encoding="UTF-8"?>
<!DOCTYPE svg PUBLIC "-//W3C//DTD SVG 1.1//EN" "http://www.w3.org/Graphics/SVG/1.1/DTD/svg11.dtd">
<!-- Creator: CorelDRAW 2021 (64 Bit) -->
<svg xmlns="http://www.w3.org/2000/svg" xml:space="preserve" width="167px" height="40px" version="1.1" style="shape-rendering:geometricPrecision; text-rendering:geometricPrecision; image-rendering:optimizeQuality; fill-rule:evenodd; clip-rule:evenodd"
viewBox="0 0 6.67 1.58"
 xmlns:xlink="http://www.w3.org/1999/xlink"
 xmlns:xodm="http://www.corel.com/coreldraw/odm/2003">
 <defs>
  <style type="text/css">
   <![CDATA[
    .fil1 {fill:#FEFEFE}
    .fil0 {fill:#201E1E}
   ]]>
  </style>
 </defs>
 <g id="Camada_x0020_1">
  <metadata id="CorelCorpID_0Corel-Layer"/>
  <g id="_2038741958096">
   <path class="fil0" d="M0.73 1.2l0.02 0 0.01 0.07 -0.02 0 -0.01 -0.07zm0.34 -0.55l0 0.03 -0.07 0.02c0,0.06 0.01,0.04 0.04,0.08 0.01,0.02 0.03,0.05 0.04,0.07 0.04,0.08 -0.02,0.12 -0.02,0.19 0,0.04 0.06,0.02 0.08,0.01l0.02 0.05c-0.03,0.02 -0.06,0.02 -0.1,0.03 -0.05,0 -0.06,0 -0.07,0.04 -0.01,0.05 -0.02,0.08 -0.17,0.09 -0.01,-0.04 -0.02,-0.08 -0.02,-0.12 -0.29,0 0.02,0.16 -0.22,0.17 -0.03,0 -0.06,-0.02 -0.08,-0.04 -0.04,-0.02 -0.04,-0.04 -0.05,-0.08 -0.23,0 -0.22,0.02 -0.22,-0.08 0.03,0 0.06,-0.01 0.09,-0.02 0.03,-0.14 0.08,-0.16 -0.03,-0.3 -0.06,-0.09 -0.05,-0.05 -0.15,-0.05 0,-0.05 -0.01,-0.05 -0.01,-0.09 -0.08,0 -0.04,0.03 -0.03,0.1 -0.04,0.01 -0.07,0.02 -0.1,0.03 0.01,0.09 0.1,0.1 0.1,0.2 0,0.06 -0.04,0.09 -0.04,0.16 0.1,0 0.07,0 0.11,-0.01l0.01 0.07c-0.19,0 -0.12,0.01 -0.05,0.15 0.09,0 0.11,0.05 0.17,0.13 0.07,0.09 0.16,0.1 0.26,0.1l0 0c0.13,0 0.37,-0.04 0.47,-0.07 0.2,-0.08 0.23,-0.17 0.23,-0.37 0.06,0 0.14,-0.03 0.19,-0.04 0,-0.1 -0.05,-0.01 -0.25,-0.01l0 -0.05 0.07 -0.01c0.03,-0.1 0.08,-0.16 0,-0.27 -0.02,-0.04 -0.03,-0.05 -0.05,-0.09l-0.09 0c-0.02,-0.05 0.01,-0.03 -0.03,-0.06 -0.02,0.01 -0.03,0 -0.03,0.04z"/>
   <path class="fil0" d="M0.38 0.53c0.01,-0.07 0.05,-0.17 0.12,-0.18 -0.01,0.05 -0.03,0.04 -0.06,0.08 -0.05,0.06 0.01,0.08 -0.06,0.1zm0.35 0.42l0.01 -0.01c0.01,-0.01 0.02,-0.01 0.03,-0.01 0.02,0 0.02,-0.01 0.05,-0.01 0,-0.06 -0.06,-0.04 0.03,-0.21 0.06,-0.14 0.09,-0.23 -0.02,-0.37 -0.07,-0.08 -0.15,-0.1 -0.26,-0.1 -0.01,0.01 0,0.01 -0.02,0.01 -0.01,0.01 -0.03,0.01 -0.04,0.01 -0.03,0.01 -0.03,0.02 -0.06,0.03 -0.04,0.03 -0.06,0.06 -0.09,0.1 -0.04,0.08 -0.05,0.2 0,0.28 0.06,0.1 0.19,0.16 0.2,0.23 0.01,0.04 -0.02,0.05 0.01,0.06 0.01,0.01 0.13,-0.01 0.16,-0.01z"/>
   <path class="fil0" d="M0.57 0.24c0,-0.12 -0.01,-0.22 -0.07,-0.24l-0.03 0c-0.01,0 -0.03,0.01 -0.05,0.02 -0.06,0.03 -0.02,0.03 -0.11,0.03 0,0.05 0.01,0.08 0.02,0.13 0.14,0.03 0.08,-0.03 0.18,-0.04 0,0.06 0.01,0.06 0.03,0.1l0.03 0z"/>
   <path class="fil0" d="M0.71 1.02c0,0.02 -0.03,0.01 -0.05,0.01l-0.03 0.01c0,0 -0.01,0 -0.01,0 -0.03,0.01 -0.01,0 -0.04,0.01l0 0.05c0.09,0 0.05,0 0.1,0.04 0.04,-0.01 0.08,-0.01 0.1,-0.04l0.07 -0.07c-0.03,-0.02 -0.03,-0.02 -0.08,-0.02 0,0.02 -0.03,0.01 -0.06,0.01z"/>
   <path class="fil0" d="M0.66 1.03c0,-0.02 0.03,-0.01 0.05,-0.01 0,-0.02 0.04,-0.01 0.06,-0.01 0.05,-0.04 0.03,0 0.06,-0.04 -0.02,-0.04 -0.04,-0.02 -0.1,-0.02l-0.02 0.01c-0.1,0.04 -0.14,-0.03 -0.14,0.07l0.09 0z"/>
  </g>
  <path class="fil1" d="M3.26 0.81l0.12 0 0 -0.44 -0.01 0 0 -0.12 0.64 0 0 0.12 -0.37 0 0 0.44 0.37 0 0 0.12 -0.37 0 0 0.4 -0.26 0 0 -0.4 -0.12 0 0 -0.12zm-0.29 -0.55l-0.01 0 -0.26 0 0 0 0 0.01 -0.13 0.54 -0.12 0 0 0.12 0.09 0 -0.1 0.4 0.27 0 0.09 -0.4 0.06 0 0.1 0.4 0.27 0 -0.26 -1.06 0 -0.01zm3.32 0.11l0 0.44 0.38 0 0 0.12 -0.38 0 0 0.28 0.37 0 0 0.12 -0.37 0 -0.26 0 0 0 0 -0.12 0 0 0 -0.28 -0.11 0 0 -0.12 0.11 0 0 -0.44 0 0 0 -0.12 0.63 0 0 0.12 -0.37 0zm-0.66 0l0 0.96 -0.27 0 0 -0.96 -0.17 0 0 -0.12 0.63 0 0 0.12 -0.19 0zm-0.72 0l0 0.96 -0.26 0 0 -0.96 -0.19 0 0 -0.12 0.63 0 0 0.12 -0.18 0zm-0.81 -0.11l0.26 0 0 1.07 -0.26 0 0 -1.07zm-2.34 0l0.26 0 0 0.95 0.38 0 0 0.12 -0.38 0 -0.26 0 0 0 0 -1.07z"/>
 </g>
</svg>
