<svg width="43" height="41" viewBox="0 0 43 41" fill="none" xmlns="http://www.w3.org/2000/svg">
<path d="M42.6296 5.54407C40.9525 6.37321 39.275 6.89101 37.5986 7.09901C39.492 5.79323 40.7727 3.94851 41.44 1.56499C39.708 2.74619 37.86 3.55432 35.8946 3.98979C34.1633 1.87567 32.0358 0.818176 29.5107 0.818176C27.0945 0.818176 25.0345 1.79737 23.3297 3.75621C21.6258 5.71493 20.7739 8.08278 20.7739 10.8601C20.7739 11.6061 20.8458 12.3733 20.9903 13.1608C17.4197 12.9536 14.0702 11.9224 10.9412 10.0674C7.81247 8.21214 5.15715 5.74041 2.97526 2.65222C2.1818 4.20638 1.78493 5.89591 1.78493 7.71983C1.78493 9.44017 2.13651 11.0364 2.84016 12.508C3.54333 13.9794 4.49027 15.1711 5.68051 16.0832C4.27369 16.0209 2.95736 15.5959 1.7313 14.8083V14.9326C1.7313 17.3578 2.39403 19.4871 3.71926 21.322C5.0447 23.1567 6.71736 24.3116 8.73687 24.7885C7.97941 25.0162 7.21286 25.1302 6.43759 25.1302C5.93262 25.1302 5.38255 25.0785 4.78757 24.9756C5.34655 26.9857 6.37449 28.6381 7.87103 29.9342C9.36785 31.2297 11.063 31.8973 12.9565 31.9399C9.78281 34.7997 6.16729 36.2296 2.10989 36.2296C1.33433 36.2296 0.631262 36.189 0 36.1056C4.05749 39.1107 8.52957 40.6133 13.4166 40.6133C16.5182 40.6133 19.4306 40.0491 22.1527 38.9192C24.8761 37.79 27.2021 36.2766 29.1318 34.3797C31.0609 32.4832 32.7248 30.3017 34.1222 27.8353C35.5196 25.3687 36.5606 22.7936 37.2465 20.1095C37.9315 17.4249 38.2743 14.7361 38.2743 12.0411C38.2743 11.4608 38.2652 11.0257 38.247 10.7354C39.9607 9.3059 41.4212 7.57488 42.6296 5.54407Z" fill="white"/>
</svg>
